<svg width="367" height="333" viewBox="0 0 367 333" fill="none" xmlns="http://www.w3.org/2000/svg">
<rect width="367" height="329" fill="white"/>
<rect width="367" height="244" transform="translate(0 76)" fill="white"/>
<path d="M33.5273 114V112.789L38.332 107.633C38.944 106.975 39.4193 106.435 39.7578 106.012C40.0964 105.582 40.3307 105.195 40.4609 104.85C40.5977 104.505 40.666 104.127 40.666 103.717V103.697C40.666 103.209 40.5553 102.773 40.334 102.389C40.1191 101.998 39.8132 101.692 39.416 101.471C39.0189 101.243 38.5501 101.129 38.0098 101.129C37.4434 101.129 36.9421 101.246 36.5059 101.48C36.0762 101.715 35.7409 102.04 35.5 102.457C35.2591 102.867 35.1387 103.342 35.1387 103.883L35.1289 103.912L33.4395 103.902L33.4297 103.883C33.4362 103.056 33.638 102.32 34.0352 101.676C34.4388 101.025 34.9922 100.517 35.6953 100.152C36.3984 99.7812 37.196 99.5957 38.0879 99.5957C38.9147 99.5957 39.6569 99.7682 40.3145 100.113C40.9785 100.458 41.4993 100.927 41.877 101.52C42.2611 102.112 42.4531 102.786 42.4531 103.541V103.561C42.4531 104.088 42.3587 104.599 42.1699 105.094C41.9811 105.582 41.6523 106.129 41.1836 106.734C40.7148 107.333 40.0508 108.072 39.1914 108.951L35.5 112.76L35.959 111.891V112.76L35.5098 112.418H42.6875V114H33.5273Z" fill="black"/>
<path d="M86.5586 114.234C85.5885 114.234 84.7422 114.068 84.0195 113.736C83.2969 113.404 82.724 112.949 82.3008 112.369C81.8841 111.79 81.6432 111.129 81.5781 110.387L81.5684 110.27H83.2578L83.2676 110.367C83.3197 110.829 83.4857 111.236 83.7656 111.588C84.0521 111.939 84.4329 112.216 84.9082 112.418C85.3835 112.613 85.9336 112.711 86.5586 112.711C87.1771 112.711 87.7174 112.604 88.1797 112.389C88.6484 112.174 89.013 111.878 89.2734 111.5C89.5339 111.116 89.6641 110.676 89.6641 110.182V110.162C89.6641 109.296 89.3743 108.632 88.7949 108.17C88.222 107.701 87.4408 107.467 86.4512 107.467H84.6836V105.982H86.373C86.9329 105.982 87.4277 105.878 87.8574 105.67C88.2871 105.455 88.6224 105.165 88.8633 104.801C89.1042 104.43 89.2246 104.01 89.2246 103.541V103.521C89.2246 103.027 89.1204 102.607 88.9121 102.262C88.7038 101.917 88.3978 101.653 87.9941 101.471C87.597 101.288 87.112 101.197 86.5391 101.197C85.9857 101.197 85.4909 101.292 85.0547 101.48C84.625 101.663 84.2799 101.926 84.0195 102.271C83.7591 102.617 83.6029 103.027 83.5508 103.502L83.541 103.6H81.8516L81.8613 103.502C81.9395 102.734 82.1803 102.063 82.584 101.49C82.9941 100.917 83.5345 100.471 84.2051 100.152C84.8822 99.8333 85.6602 99.6738 86.5391 99.6738C87.4375 99.6738 88.2188 99.8301 88.8828 100.143C89.5534 100.449 90.071 100.875 90.4355 101.422C90.8066 101.962 90.9922 102.59 90.9922 103.307V103.326C90.9922 103.906 90.8652 104.42 90.6113 104.869C90.3574 105.318 90.0059 105.693 89.5566 105.992C89.1074 106.292 88.5898 106.503 88.0039 106.627V106.666C89.0326 106.751 89.8626 107.099 90.4941 107.711C91.1322 108.316 91.4512 109.12 91.4512 110.123V110.143C91.4512 110.924 91.2396 111.624 90.8164 112.242C90.3932 112.861 89.8138 113.349 89.0781 113.707C88.3424 114.059 87.5026 114.234 86.5586 114.234Z" fill="black"/>
<path d="M136.621 114V111.08H129.707V109.479C130.098 108.84 130.492 108.196 130.889 107.545C131.292 106.894 131.696 106.243 132.1 105.592C132.51 104.941 132.92 104.296 133.33 103.658C133.74 103.014 134.15 102.379 134.561 101.754C134.971 101.122 135.374 100.507 135.771 99.9082H138.34V109.508H140.332V111.08H138.34V114H136.621ZM131.484 109.518H136.631V101.51H136.523C136.198 101.998 135.866 102.503 135.527 103.023C135.195 103.538 134.857 104.062 134.512 104.596C134.167 105.13 133.822 105.667 133.477 106.207C133.138 106.747 132.799 107.288 132.461 107.828C132.129 108.362 131.803 108.893 131.484 109.42V109.518Z" fill="black"/>
<path d="M183.549 114.312C182.67 114.312 181.885 114.14 181.195 113.795C180.512 113.45 179.962 112.978 179.545 112.379C179.128 111.78 178.884 111.106 178.812 110.357L178.803 110.25H180.502L180.512 110.328C180.57 110.777 180.736 111.188 181.01 111.559C181.283 111.93 181.638 112.223 182.074 112.438C182.517 112.652 183.015 112.76 183.568 112.76C184.193 112.76 184.743 112.623 185.219 112.35C185.701 112.07 186.075 111.686 186.342 111.197C186.615 110.709 186.752 110.149 186.752 109.518V109.498C186.752 108.88 186.615 108.329 186.342 107.848C186.068 107.359 185.694 106.979 185.219 106.705C184.75 106.432 184.21 106.295 183.598 106.295C183.129 106.295 182.696 106.367 182.299 106.51C181.902 106.653 181.547 106.868 181.234 107.154C181.111 107.271 180.993 107.398 180.883 107.535C180.779 107.672 180.681 107.825 180.59 107.994H179.057L179.799 99.9082H187.689V101.48H181.195L180.717 106.236H180.844C181.059 105.917 181.319 105.65 181.625 105.436C181.938 105.221 182.286 105.058 182.67 104.947C183.061 104.83 183.471 104.771 183.9 104.771C184.792 104.771 185.58 104.977 186.264 105.387C186.954 105.79 187.494 106.347 187.885 107.057C188.282 107.76 188.48 108.564 188.48 109.469V109.488C188.48 110.432 188.269 111.269 187.846 111.998C187.423 112.721 186.84 113.287 186.098 113.697C185.362 114.107 184.512 114.312 183.549 114.312Z" fill="black"/>
<path d="M232.146 114.312C231.502 114.312 230.864 114.189 230.232 113.941C229.607 113.694 229.038 113.294 228.523 112.74C228.009 112.187 227.599 111.458 227.293 110.553C226.987 109.648 226.834 108.535 226.834 107.213V107.193C226.834 105.598 227.049 104.234 227.479 103.102C227.908 101.969 228.527 101.103 229.334 100.504C230.148 99.8984 231.124 99.5957 232.264 99.5957C233.058 99.5957 233.771 99.7422 234.402 100.035C235.04 100.322 235.574 100.725 236.004 101.246C236.434 101.76 236.727 102.363 236.883 103.053L236.912 103.18H235.135L235.096 103.072C234.952 102.675 234.747 102.337 234.48 102.057C234.22 101.777 233.901 101.559 233.523 101.402C233.152 101.246 232.726 101.168 232.244 101.168C231.391 101.168 230.695 101.419 230.154 101.92C229.62 102.421 229.223 103.085 228.963 103.912C228.709 104.732 228.566 105.637 228.533 106.627C228.527 106.705 228.523 106.786 228.523 106.871C228.523 106.949 228.523 107.031 228.523 107.115L228.943 109.449C228.943 110.068 229.083 110.628 229.363 111.129C229.65 111.624 230.034 112.018 230.516 112.311C230.997 112.604 231.535 112.75 232.127 112.75C232.726 112.75 233.266 112.607 233.748 112.32C234.23 112.034 234.611 111.646 234.891 111.158C235.177 110.663 235.32 110.113 235.32 109.508V109.488C235.32 108.87 235.184 108.32 234.91 107.838C234.643 107.35 234.272 106.969 233.797 106.695C233.322 106.422 232.775 106.285 232.156 106.285C231.551 106.285 231.004 106.422 230.516 106.695C230.034 106.962 229.65 107.337 229.363 107.818C229.083 108.294 228.943 108.834 228.943 109.439V109.449H228.357V106.949H228.67C228.852 106.559 229.119 106.197 229.471 105.865C229.822 105.527 230.249 105.257 230.75 105.055C231.258 104.853 231.827 104.752 232.459 104.752C233.351 104.752 234.145 104.957 234.842 105.367C235.538 105.771 236.089 106.327 236.492 107.037C236.896 107.747 237.098 108.551 237.098 109.449V109.469C237.098 110.406 236.883 111.24 236.453 111.969C236.023 112.691 235.438 113.264 234.695 113.688C233.953 114.104 233.104 114.312 232.146 114.312Z" fill="black"/>
<path d="M276.965 114L283.303 101.588V101.48H275.754V99.9082H285.08V101.539L278.811 114H276.965Z" fill="black"/>
<path d="M329 114.234C328.004 114.234 327.122 114.062 326.354 113.717C325.585 113.372 324.98 112.896 324.537 112.291C324.101 111.679 323.883 110.979 323.883 110.191V110.172C323.883 109.592 324.01 109.055 324.264 108.561C324.518 108.066 324.872 107.646 325.328 107.301C325.784 106.949 326.311 106.705 326.91 106.568V106.529C326.142 106.288 325.53 105.891 325.074 105.338C324.618 104.785 324.391 104.137 324.391 103.395V103.375C324.391 102.665 324.589 102.034 324.986 101.48C325.383 100.921 325.93 100.481 326.627 100.162C327.324 99.8366 328.115 99.6738 329 99.6738C329.892 99.6738 330.683 99.8366 331.373 100.162C332.07 100.481 332.617 100.921 333.014 101.48C333.411 102.034 333.609 102.665 333.609 103.375V103.395C333.609 104.137 333.382 104.785 332.926 105.338C332.477 105.891 331.865 106.288 331.09 106.529V106.568C331.695 106.705 332.223 106.949 332.672 107.301C333.128 107.646 333.482 108.066 333.736 108.561C333.99 109.055 334.117 109.592 334.117 110.172V110.191C334.117 110.979 333.899 111.679 333.463 112.291C333.027 112.896 332.421 113.372 331.646 113.717C330.878 114.062 329.996 114.234 329 114.234ZM329 112.701C329.651 112.701 330.224 112.59 330.719 112.369C331.22 112.141 331.614 111.832 331.9 111.441C332.187 111.044 332.33 110.592 332.33 110.084V110.064C332.33 109.55 332.187 109.094 331.9 108.697C331.62 108.3 331.23 107.988 330.729 107.76C330.227 107.532 329.651 107.418 329 107.418C328.349 107.418 327.773 107.532 327.271 107.76C326.77 107.988 326.376 108.3 326.09 108.697C325.81 109.094 325.67 109.55 325.67 110.064V110.084C325.67 110.592 325.813 111.044 326.1 111.441C326.386 111.832 326.78 112.141 327.281 112.369C327.783 112.59 328.355 112.701 329 112.701ZM329 105.875C329.566 105.875 330.064 105.777 330.494 105.582C330.924 105.38 331.259 105.104 331.5 104.752C331.741 104.4 331.861 103.997 331.861 103.541V103.521C331.861 103.066 331.741 102.662 331.5 102.311C331.259 101.959 330.924 101.686 330.494 101.49C330.064 101.288 329.566 101.188 329 101.188C328.434 101.188 327.936 101.288 327.506 101.49C327.076 101.686 326.741 101.959 326.5 102.311C326.259 102.662 326.139 103.066 326.139 103.521V103.541C326.139 103.997 326.259 104.4 326.5 104.752C326.741 105.104 327.076 105.38 327.506 105.582C327.936 105.777 328.434 105.875 329 105.875Z" fill="black"/>
<path d="M37.834 150.596C38.4785 150.596 39.1165 150.719 39.748 150.967C40.3796 151.214 40.9492 151.615 41.457 152.168C41.9714 152.721 42.3815 153.451 42.6875 154.355C42.9935 155.26 43.1465 156.374 43.1465 157.695V157.715C43.1465 159.31 42.9316 160.674 42.502 161.807C42.0723 162.939 41.4538 163.809 40.6465 164.414C39.8392 165.013 38.8626 165.312 37.7168 165.312C36.929 165.312 36.2161 165.169 35.5781 164.883C34.9401 164.59 34.4095 164.186 33.9863 163.672C33.5632 163.151 33.2702 162.546 33.1074 161.855L33.0781 161.729H34.8457L34.8848 161.836C35.028 162.227 35.2298 162.565 35.4902 162.852C35.7572 163.132 36.0794 163.35 36.457 163.506C36.8346 163.662 37.2611 163.74 37.7363 163.74C38.5957 163.74 39.2923 163.49 39.8262 162.988C40.36 162.487 40.7572 161.823 41.0176 160.996C41.278 160.169 41.4245 159.264 41.457 158.281C41.4635 158.197 41.4668 158.115 41.4668 158.037C41.4668 157.952 41.4668 157.871 41.4668 157.793L41.0469 155.459C41.0469 154.84 40.9036 154.284 40.6172 153.789C40.3372 153.288 39.9564 152.891 39.4746 152.598C38.9928 152.305 38.4525 152.158 37.8535 152.158C37.2676 152.158 36.7305 152.301 36.2422 152.588C35.7604 152.874 35.3763 153.262 35.0898 153.75C34.8034 154.238 34.6602 154.788 34.6602 155.4V155.42C34.6602 156.038 34.7969 156.592 35.0703 157.08C35.3438 157.562 35.7181 157.939 36.1934 158.213C36.6751 158.486 37.2188 158.623 37.8242 158.623C38.4362 158.623 38.9831 158.49 39.4648 158.223C39.9531 157.949 40.3372 157.575 40.6172 157.1C40.9036 156.618 41.0469 156.074 41.0469 155.469V155.459H41.623V157.959H41.3105C41.1413 158.35 40.8776 158.714 40.5195 159.053C40.168 159.385 39.7383 159.652 39.2305 159.854C38.7292 160.055 38.1595 160.156 37.5215 160.156C36.6426 160.156 35.8516 159.954 35.1484 159.551C34.4518 159.141 33.9017 158.581 33.498 157.871C33.0944 157.155 32.8926 156.351 32.8926 155.459V155.439C32.8926 154.502 33.1042 153.669 33.5273 152.939C33.957 152.21 34.543 151.637 35.2852 151.221C36.0339 150.804 36.8835 150.596 37.834 150.596Z" fill="black"/>
<path d="M80.8363 165V152.842H80.7094L77.0863 155.439V153.604L80.8363 150.908H82.5844V165H80.8363ZM90.8453 165.312C89.7971 165.312 88.8987 165.013 88.15 164.414C87.4078 163.815 86.8349 162.965 86.4313 161.865C86.0341 160.765 85.8355 159.463 85.8355 157.959V157.939C85.8355 156.436 86.0341 155.137 86.4313 154.043C86.8349 152.943 87.4078 152.093 88.15 151.494C88.8987 150.895 89.7971 150.596 90.8453 150.596C91.9 150.596 92.8017 150.895 93.5504 151.494C94.2991 152.093 94.8753 152.943 95.2789 154.043C95.6826 155.137 95.8844 156.436 95.8844 157.939V157.959C95.8844 159.463 95.6826 160.765 95.2789 161.865C94.8753 162.965 94.2991 163.815 93.5504 164.414C92.8017 165.013 91.9 165.312 90.8453 165.312ZM90.8453 163.779C91.5354 163.779 92.1214 163.542 92.6031 163.066C93.0914 162.591 93.4658 161.921 93.7262 161.055C93.9866 160.182 94.1168 159.15 94.1168 157.959V157.939C94.1168 156.748 93.9866 155.719 93.7262 154.854C93.4658 153.988 93.0914 153.32 92.6031 152.852C92.1214 152.376 91.5354 152.139 90.8453 152.139C90.1682 152.139 89.5855 152.376 89.0973 152.852C88.6155 153.32 88.2444 153.988 87.984 154.854C87.7301 155.719 87.6031 156.748 87.6031 157.939V157.959C87.6031 159.15 87.7301 160.182 87.984 161.055C88.2444 161.921 88.6155 162.591 89.0973 163.066C89.5855 163.542 90.1682 163.779 90.8453 163.779Z" fill="#007AFF"/>
<path d="M130.996 165V152.842H130.87L127.246 155.439V153.604L130.996 150.908H132.745V165H130.996ZM139.726 165V152.842H139.599L135.976 155.439V153.604L139.726 150.908H141.474V165H139.726Z" fill="black"/>
<path d="M178.139 165V152.842H178.012L174.389 155.439V153.604L178.139 150.908H179.887V165H178.139ZM183.392 165V163.789L188.197 158.633C188.809 157.975 189.284 157.435 189.623 157.012C189.961 156.582 190.196 156.195 190.326 155.85C190.463 155.505 190.531 155.127 190.531 154.717V154.697C190.531 154.209 190.42 153.773 190.199 153.389C189.984 152.998 189.678 152.692 189.281 152.471C188.884 152.243 188.415 152.129 187.875 152.129C187.308 152.129 186.807 152.246 186.371 152.48C185.941 152.715 185.606 153.04 185.365 153.457C185.124 153.867 185.004 154.342 185.004 154.883L184.994 154.912L183.304 154.902L183.295 154.883C183.301 154.056 183.503 153.32 183.9 152.676C184.304 152.025 184.857 151.517 185.56 151.152C186.263 150.781 187.061 150.596 187.953 150.596C188.78 150.596 189.522 150.768 190.179 151.113C190.843 151.458 191.364 151.927 191.742 152.52C192.126 153.112 192.318 153.786 192.318 154.541V154.561C192.318 155.088 192.224 155.599 192.035 156.094C191.846 156.582 191.517 157.129 191.048 157.734C190.58 158.333 189.916 159.072 189.056 159.951L185.365 163.76L185.824 162.891V163.76L185.375 163.418H192.552V165H183.392Z" fill="black"/>
<path d="M226.395 165V152.842H226.268L222.645 155.439V153.604L226.395 150.908H228.143V165H226.395ZM236.423 165.234C235.453 165.234 234.607 165.068 233.884 164.736C233.162 164.404 232.589 163.949 232.166 163.369C231.749 162.79 231.508 162.129 231.443 161.387L231.433 161.27H233.123L233.132 161.367C233.185 161.829 233.351 162.236 233.63 162.588C233.917 162.939 234.298 163.216 234.773 163.418C235.248 163.613 235.798 163.711 236.423 163.711C237.042 163.711 237.582 163.604 238.045 163.389C238.513 163.174 238.878 162.878 239.138 162.5C239.399 162.116 239.529 161.676 239.529 161.182V161.162C239.529 160.296 239.239 159.632 238.66 159.17C238.087 158.701 237.306 158.467 236.316 158.467H234.548V156.982H236.238C236.798 156.982 237.293 156.878 237.722 156.67C238.152 156.455 238.487 156.165 238.728 155.801C238.969 155.43 239.089 155.01 239.089 154.541V154.521C239.089 154.027 238.985 153.607 238.777 153.262C238.569 152.917 238.263 152.653 237.859 152.471C237.462 152.288 236.977 152.197 236.404 152.197C235.851 152.197 235.356 152.292 234.92 152.48C234.49 152.663 234.145 152.926 233.884 153.271C233.624 153.617 233.468 154.027 233.416 154.502L233.406 154.6H231.716L231.726 154.502C231.804 153.734 232.045 153.063 232.449 152.49C232.859 151.917 233.399 151.471 234.07 151.152C234.747 150.833 235.525 150.674 236.404 150.674C237.302 150.674 238.084 150.83 238.748 151.143C239.418 151.449 239.936 151.875 240.3 152.422C240.671 152.962 240.857 153.59 240.857 154.307V154.326C240.857 154.906 240.73 155.42 240.476 155.869C240.222 156.318 239.871 156.693 239.421 156.992C238.972 157.292 238.455 157.503 237.869 157.627V157.666C238.897 157.751 239.727 158.099 240.359 158.711C240.997 159.316 241.316 160.12 241.316 161.123V161.143C241.316 161.924 241.104 162.624 240.681 163.242C240.258 163.861 239.679 164.349 238.943 164.707C238.207 165.059 237.367 165.234 236.423 165.234Z" fill="black"/>
<path d="M274.739 165V152.842H274.612L270.989 155.439V153.604L274.739 150.908H276.487V165H274.739ZM286.486 165V162.08H279.572V160.479C279.963 159.84 280.356 159.196 280.754 158.545C281.157 157.894 281.561 157.243 281.964 156.592C282.375 155.941 282.785 155.296 283.195 154.658C283.605 154.014 284.015 153.379 284.425 152.754C284.836 152.122 285.239 151.507 285.636 150.908H288.205V160.508H290.197V162.08H288.205V165H286.486ZM281.349 160.518H286.496V152.51H286.388C286.063 152.998 285.731 153.503 285.392 154.023C285.06 154.538 284.722 155.062 284.377 155.596C284.032 156.13 283.686 156.667 283.341 157.207C283.003 157.747 282.664 158.288 282.326 158.828C281.994 159.362 281.668 159.893 281.349 160.42V160.518Z" fill="black"/>
<path d="M323.483 165V152.842H323.356L319.733 155.439V153.604L323.483 150.908H325.231V165H323.483ZM333.414 165.312C332.535 165.312 331.75 165.14 331.06 164.795C330.377 164.45 329.826 163.978 329.41 163.379C328.993 162.78 328.749 162.106 328.677 161.357L328.668 161.25H330.367L330.377 161.328C330.435 161.777 330.601 162.188 330.875 162.559C331.148 162.93 331.503 163.223 331.939 163.438C332.382 163.652 332.88 163.76 333.433 163.76C334.058 163.76 334.608 163.623 335.084 163.35C335.565 163.07 335.94 162.686 336.207 162.197C336.48 161.709 336.617 161.149 336.617 160.518V160.498C336.617 159.88 336.48 159.329 336.207 158.848C335.933 158.359 335.559 157.979 335.084 157.705C334.615 157.432 334.074 157.295 333.463 157.295C332.994 157.295 332.561 157.367 332.164 157.51C331.767 157.653 331.412 157.868 331.099 158.154C330.976 158.271 330.858 158.398 330.748 158.535C330.643 158.672 330.546 158.825 330.455 158.994H328.921L329.664 150.908H337.554V152.48H331.06L330.582 157.236H330.709C330.923 156.917 331.184 156.65 331.49 156.436C331.802 156.221 332.151 156.058 332.535 155.947C332.925 155.83 333.336 155.771 333.765 155.771C334.657 155.771 335.445 155.977 336.129 156.387C336.819 156.79 337.359 157.347 337.75 158.057C338.147 158.76 338.345 159.564 338.345 160.469V160.488C338.345 161.432 338.134 162.269 337.711 162.998C337.287 163.721 336.705 164.287 335.963 164.697C335.227 165.107 334.377 165.312 333.414 165.312Z" fill="black"/>
<path d="M32.2582 216V203.842H32.1313L28.5082 206.439V204.604L32.2582 201.908H34.0063V216H32.2582ZM42.5113 216.312C41.8668 216.312 41.2288 216.189 40.5973 215.941C39.9723 215.694 39.4026 215.294 38.8883 214.74C38.374 214.187 37.9638 213.458 37.6578 212.553C37.3518 211.648 37.1988 210.535 37.1988 209.213V209.193C37.1988 207.598 37.4137 206.234 37.8434 205.102C38.273 203.969 38.8915 203.103 39.6988 202.504C40.5126 201.898 41.4892 201.596 42.6285 201.596C43.4228 201.596 44.1357 201.742 44.7672 202.035C45.4052 202.322 45.9391 202.725 46.3688 203.246C46.7984 203.76 47.0914 204.363 47.2477 205.053L47.277 205.18H45.4996L45.4605 205.072C45.3173 204.675 45.1122 204.337 44.8453 204.057C44.5849 203.777 44.2659 203.559 43.8883 203.402C43.5172 203.246 43.0908 203.168 42.609 203.168C41.7561 203.168 41.0595 203.419 40.5191 203.92C39.9853 204.421 39.5882 205.085 39.3277 205.912C39.0738 206.732 38.9306 207.637 38.898 208.627C38.8915 208.705 38.8883 208.786 38.8883 208.871C38.8883 208.949 38.8883 209.031 38.8883 209.115L39.3082 211.449C39.3082 212.068 39.4482 212.628 39.7281 213.129C40.0146 213.624 40.3987 214.018 40.8805 214.311C41.3622 214.604 41.8994 214.75 42.4918 214.75C43.0908 214.75 43.6311 214.607 44.1129 214.32C44.5947 214.034 44.9755 213.646 45.2555 213.158C45.5419 212.663 45.6852 212.113 45.6852 211.508V211.488C45.6852 210.87 45.5484 210.32 45.275 209.838C45.0081 209.35 44.637 208.969 44.1617 208.695C43.6865 208.422 43.1396 208.285 42.5211 208.285C41.9156 208.285 41.3688 208.422 40.8805 208.695C40.3987 208.962 40.0146 209.337 39.7281 209.818C39.4482 210.294 39.3082 210.834 39.3082 211.439V211.449H38.7223V208.949H39.0348C39.2171 208.559 39.484 208.197 39.8355 207.865C40.1871 207.527 40.6135 207.257 41.1148 207.055C41.6227 206.853 42.1923 206.752 42.8238 206.752C43.7158 206.752 44.51 206.957 45.2066 207.367C45.9033 207.771 46.4534 208.327 46.857 209.037C47.2607 209.747 47.4625 210.551 47.4625 211.449V211.469C47.4625 212.406 47.2477 213.24 46.818 213.969C46.3883 214.691 45.8023 215.264 45.0602 215.688C44.318 216.104 43.4684 216.312 42.5113 216.312Z" fill="black"/>
<path d="M81.4418 216V203.842H81.3148L77.6918 206.439V204.604L81.4418 201.908H83.1898V216H81.4418ZM87.3297 216L93.6676 203.588V203.48H86.1188V201.908H95.4449V203.539L89.1754 216H87.3297Z" fill="black"/>
<path d="M129.288 216V203.842H129.161L125.538 206.439V204.604L129.288 201.908H131.036V216H129.288ZM139.365 216.234C138.369 216.234 137.487 216.062 136.718 215.717C135.95 215.372 135.345 214.896 134.902 214.291C134.466 213.679 134.248 212.979 134.248 212.191V212.172C134.248 211.592 134.375 211.055 134.629 210.561C134.882 210.066 135.237 209.646 135.693 209.301C136.149 208.949 136.676 208.705 137.275 208.568V208.529C136.507 208.288 135.895 207.891 135.439 207.338C134.983 206.785 134.755 206.137 134.755 205.395V205.375C134.755 204.665 134.954 204.034 135.351 203.48C135.748 202.921 136.295 202.481 136.992 202.162C137.688 201.837 138.479 201.674 139.365 201.674C140.257 201.674 141.048 201.837 141.738 202.162C142.435 202.481 142.981 202.921 143.379 203.48C143.776 204.034 143.974 204.665 143.974 205.375V205.395C143.974 206.137 143.746 206.785 143.291 207.338C142.841 207.891 142.229 208.288 141.455 208.529V208.568C142.06 208.705 142.588 208.949 143.037 209.301C143.492 209.646 143.847 210.066 144.101 210.561C144.355 211.055 144.482 211.592 144.482 212.172V212.191C144.482 212.979 144.264 213.679 143.828 214.291C143.392 214.896 142.786 215.372 142.011 215.717C141.243 216.062 140.361 216.234 139.365 216.234ZM139.365 214.701C140.016 214.701 140.589 214.59 141.084 214.369C141.585 214.141 141.979 213.832 142.265 213.441C142.552 213.044 142.695 212.592 142.695 212.084V212.064C142.695 211.55 142.552 211.094 142.265 210.697C141.985 210.3 141.595 209.988 141.093 209.76C140.592 209.532 140.016 209.418 139.365 209.418C138.714 209.418 138.138 209.532 137.636 209.76C137.135 209.988 136.741 210.3 136.455 210.697C136.175 211.094 136.035 211.55 136.035 212.064V212.084C136.035 212.592 136.178 213.044 136.464 213.441C136.751 213.832 137.145 214.141 137.646 214.369C138.147 214.59 138.72 214.701 139.365 214.701ZM139.365 207.875C139.931 207.875 140.429 207.777 140.859 207.582C141.289 207.38 141.624 207.104 141.865 206.752C142.106 206.4 142.226 205.997 142.226 205.541V205.521C142.226 205.066 142.106 204.662 141.865 204.311C141.624 203.959 141.289 203.686 140.859 203.49C140.429 203.288 139.931 203.188 139.365 203.188C138.798 203.188 138.3 203.288 137.871 203.49C137.441 203.686 137.106 203.959 136.865 204.311C136.624 204.662 136.504 205.066 136.504 205.521V205.541C136.504 205.997 136.624 206.4 136.865 206.752C137.106 207.104 137.441 207.38 137.871 207.582C138.3 207.777 138.798 207.875 139.365 207.875Z" fill="black"/>
<path d="M177.758 216V203.842H177.631L174.008 206.439V204.604L177.758 201.908H179.506V216H177.758ZM187.699 201.596C188.343 201.596 188.981 201.719 189.613 201.967C190.244 202.214 190.814 202.615 191.322 203.168C191.836 203.721 192.246 204.451 192.552 205.355C192.858 206.26 193.011 207.374 193.011 208.695V208.715C193.011 210.31 192.796 211.674 192.367 212.807C191.937 213.939 191.319 214.809 190.511 215.414C189.704 216.013 188.727 216.312 187.582 216.312C186.794 216.312 186.081 216.169 185.443 215.883C184.805 215.59 184.274 215.186 183.851 214.672C183.428 214.151 183.135 213.546 182.972 212.855L182.943 212.729H184.711L184.75 212.836C184.893 213.227 185.095 213.565 185.355 213.852C185.622 214.132 185.944 214.35 186.322 214.506C186.699 214.662 187.126 214.74 187.601 214.74C188.461 214.74 189.157 214.49 189.691 213.988C190.225 213.487 190.622 212.823 190.882 211.996C191.143 211.169 191.289 210.264 191.322 209.281C191.328 209.197 191.332 209.115 191.332 209.037C191.332 208.952 191.332 208.871 191.332 208.793L190.912 206.459C190.912 205.84 190.768 205.284 190.482 204.789C190.202 204.288 189.821 203.891 189.339 203.598C188.858 203.305 188.317 203.158 187.718 203.158C187.132 203.158 186.595 203.301 186.107 203.588C185.625 203.874 185.241 204.262 184.955 204.75C184.668 205.238 184.525 205.788 184.525 206.4V206.42C184.525 207.038 184.662 207.592 184.935 208.08C185.209 208.562 185.583 208.939 186.058 209.213C186.54 209.486 187.084 209.623 187.689 209.623C188.301 209.623 188.848 209.49 189.33 209.223C189.818 208.949 190.202 208.575 190.482 208.1C190.768 207.618 190.912 207.074 190.912 206.469V206.459H191.488V208.959H191.175C191.006 209.35 190.742 209.714 190.384 210.053C190.033 210.385 189.603 210.652 189.095 210.854C188.594 211.055 188.024 211.156 187.386 211.156C186.507 211.156 185.716 210.954 185.013 210.551C184.317 210.141 183.767 209.581 183.363 208.871C182.959 208.155 182.757 207.351 182.757 206.459V206.439C182.757 205.502 182.969 204.669 183.392 203.939C183.822 203.21 184.408 202.637 185.15 202.221C185.899 201.804 186.748 201.596 187.699 201.596Z" fill="black"/>
<path d="M221.502 216V214.789L226.307 209.633C226.919 208.975 227.394 208.435 227.733 208.012C228.071 207.582 228.306 207.195 228.436 206.85C228.573 206.505 228.641 206.127 228.641 205.717V205.697C228.641 205.209 228.53 204.773 228.309 204.389C228.094 203.998 227.788 203.692 227.391 203.471C226.994 203.243 226.525 203.129 225.985 203.129C225.418 203.129 224.917 203.246 224.481 203.48C224.051 203.715 223.716 204.04 223.475 204.457C223.234 204.867 223.114 205.342 223.114 205.883L223.104 205.912L221.414 205.902L221.405 205.883C221.411 205.056 221.613 204.32 222.01 203.676C222.414 203.025 222.967 202.517 223.67 202.152C224.373 201.781 225.171 201.596 226.063 201.596C226.89 201.596 227.632 201.768 228.289 202.113C228.954 202.458 229.474 202.927 229.852 203.52C230.236 204.112 230.428 204.786 230.428 205.541V205.561C230.428 206.088 230.334 206.599 230.145 207.094C229.956 207.582 229.627 208.129 229.159 208.734C228.69 209.333 228.026 210.072 227.166 210.951L223.475 214.76L223.934 213.891V214.76L223.485 214.418H230.663V216H221.502ZM237.703 216.312C236.655 216.312 235.756 216.013 235.007 215.414C234.265 214.815 233.692 213.965 233.289 212.865C232.892 211.765 232.693 210.463 232.693 208.959V208.939C232.693 207.436 232.892 206.137 233.289 205.043C233.692 203.943 234.265 203.093 235.007 202.494C235.756 201.895 236.655 201.596 237.703 201.596C238.757 201.596 239.659 201.895 240.408 202.494C241.157 203.093 241.733 203.943 242.136 205.043C242.54 206.137 242.742 207.436 242.742 208.939V208.959C242.742 210.463 242.54 211.765 242.136 212.865C241.733 213.965 241.157 214.815 240.408 215.414C239.659 216.013 238.757 216.312 237.703 216.312ZM237.703 214.779C238.393 214.779 238.979 214.542 239.461 214.066C239.949 213.591 240.323 212.921 240.584 212.055C240.844 211.182 240.974 210.15 240.974 208.959V208.939C240.974 207.748 240.844 206.719 240.584 205.854C240.323 204.988 239.949 204.32 239.461 203.852C238.979 203.376 238.393 203.139 237.703 203.139C237.026 203.139 236.443 203.376 235.955 203.852C235.473 204.32 235.102 204.988 234.841 205.854C234.588 206.719 234.461 207.748 234.461 208.939V208.959C234.461 210.15 234.588 211.182 234.841 212.055C235.102 212.921 235.473 213.591 235.955 214.066C236.443 214.542 237.026 214.779 237.703 214.779Z" fill="black"/>
<path d="M271.663 216V214.789L276.467 209.633C277.079 208.975 277.554 208.435 277.893 208.012C278.232 207.582 278.466 207.195 278.596 206.85C278.733 206.505 278.801 206.127 278.801 205.717V205.697C278.801 205.209 278.69 204.773 278.469 204.389C278.254 203.998 277.948 203.692 277.551 203.471C277.154 203.243 276.685 203.129 276.145 203.129C275.579 203.129 275.077 203.246 274.641 203.48C274.211 203.715 273.876 204.04 273.635 204.457C273.394 204.867 273.274 205.342 273.274 205.883L273.264 205.912L271.575 205.902L271.565 205.883C271.571 205.056 271.773 204.32 272.17 203.676C272.574 203.025 273.127 202.517 273.83 202.152C274.534 201.781 275.331 201.596 276.223 201.596C277.05 201.596 277.792 201.768 278.45 202.113C279.114 202.458 279.635 202.927 280.012 203.52C280.396 204.112 280.588 204.786 280.588 205.541V205.561C280.588 206.088 280.494 206.599 280.305 207.094C280.116 207.582 279.788 208.129 279.319 208.734C278.85 209.333 278.186 210.072 277.327 210.951L273.635 214.76L274.094 213.891V214.76L273.645 214.418H280.823V216H271.663ZM286.584 216V203.842H286.457L282.834 206.439V204.604L286.584 201.908H288.332V216H286.584Z" fill="black"/>
<path d="M318.805 216V214.789L323.61 209.633C324.222 208.975 324.697 208.435 325.036 208.012C325.374 207.582 325.608 207.195 325.739 206.85C325.875 206.505 325.944 206.127 325.944 205.717V205.697C325.944 205.209 325.833 204.773 325.612 204.389C325.397 203.998 325.091 203.692 324.694 203.471C324.297 203.243 323.828 203.129 323.288 203.129C322.721 203.129 322.22 203.246 321.784 203.48C321.354 203.715 321.019 204.04 320.778 204.457C320.537 204.867 320.416 205.342 320.416 205.883L320.407 205.912L318.717 205.902L318.707 205.883C318.714 205.056 318.916 204.32 319.313 203.676C319.717 203.025 320.27 202.517 320.973 202.152C321.676 201.781 322.474 201.596 323.366 201.596C324.192 201.596 324.935 201.768 325.592 202.113C326.256 202.458 326.777 202.927 327.155 203.52C327.539 204.112 327.731 204.786 327.731 205.541V205.561C327.731 206.088 327.636 206.599 327.448 207.094C327.259 207.582 326.93 208.129 326.461 208.734C325.993 209.333 325.329 210.072 324.469 210.951L320.778 214.76L321.237 213.891V214.76L320.788 214.418H327.965V216H318.805ZM330.25 216V214.789L335.054 209.633C335.666 208.975 336.142 208.435 336.48 208.012C336.819 207.582 337.053 207.195 337.183 206.85C337.32 206.505 337.388 206.127 337.388 205.717V205.697C337.388 205.209 337.278 204.773 337.056 204.389C336.841 203.998 336.535 203.692 336.138 203.471C335.741 203.243 335.272 203.129 334.732 203.129C334.166 203.129 333.664 203.246 333.228 203.48C332.798 203.715 332.463 204.04 332.222 204.457C331.981 204.867 331.861 205.342 331.861 205.883L331.851 205.912L330.162 205.902L330.152 205.883C330.158 205.056 330.36 204.32 330.757 203.676C331.161 203.025 331.714 202.517 332.418 202.152C333.121 201.781 333.918 201.596 334.81 201.596C335.637 201.596 336.379 201.768 337.037 202.113C337.701 202.458 338.222 202.927 338.599 203.52C338.983 204.112 339.175 204.786 339.175 205.541V205.561C339.175 206.088 339.081 206.599 338.892 207.094C338.703 207.582 338.375 208.129 337.906 208.734C337.437 209.333 336.773 210.072 335.914 210.951L332.222 214.76L332.681 213.891V214.76L332.232 214.418H339.41V216H330.25Z" fill="black"/>
<path d="M27.5609 267V265.789L32.3656 260.633C32.9776 259.975 33.4529 259.435 33.7914 259.012C34.1299 258.582 34.3643 258.195 34.4945 257.85C34.6313 257.505 34.6996 257.127 34.6996 256.717V256.697C34.6996 256.209 34.5889 255.773 34.3676 255.389C34.1527 254.998 33.8467 254.692 33.4496 254.471C33.0525 254.243 32.5837 254.129 32.0434 254.129C31.477 254.129 30.9757 254.246 30.5395 254.48C30.1098 254.715 29.7745 255.04 29.5336 255.457C29.2927 255.867 29.1723 256.342 29.1723 256.883L29.1625 256.912L27.473 256.902L27.4633 256.883C27.4698 256.056 27.6716 255.32 28.0688 254.676C28.4724 254.025 29.0258 253.517 29.7289 253.152C30.432 252.781 31.2296 252.596 32.1215 252.596C32.9483 252.596 33.6905 252.768 34.348 253.113C35.0121 253.458 35.5329 253.927 35.9105 254.52C36.2947 255.112 36.4867 255.786 36.4867 256.541V256.561C36.4867 257.088 36.3923 257.599 36.2035 258.094C36.0147 258.582 35.6859 259.129 35.2172 259.734C34.7484 260.333 34.0844 261.072 33.225 261.951L29.5336 265.76L29.9926 264.891V265.76L29.5434 265.418H36.7211V267H27.5609ZM43.7809 267.234C42.8108 267.234 41.9645 267.068 41.2418 266.736C40.5191 266.404 39.9462 265.949 39.523 265.369C39.1064 264.79 38.8655 264.129 38.8004 263.387L38.7906 263.27H40.4801L40.4898 263.367C40.5419 263.829 40.7079 264.236 40.9879 264.588C41.2744 264.939 41.6552 265.216 42.1305 265.418C42.6057 265.613 43.1559 265.711 43.7809 265.711C44.3994 265.711 44.9397 265.604 45.402 265.389C45.8707 265.174 46.2353 264.878 46.4957 264.5C46.7561 264.116 46.8863 263.676 46.8863 263.182V263.162C46.8863 262.296 46.5966 261.632 46.0172 261.17C45.4443 260.701 44.663 260.467 43.6734 260.467H41.9059V258.982H43.5953C44.1552 258.982 44.65 258.878 45.0797 258.67C45.5094 258.455 45.8447 258.165 46.0855 257.801C46.3264 257.43 46.4469 257.01 46.4469 256.541V256.521C46.4469 256.027 46.3427 255.607 46.1344 255.262C45.926 254.917 45.6201 254.653 45.2164 254.471C44.8193 254.288 44.3342 254.197 43.7613 254.197C43.2079 254.197 42.7132 254.292 42.277 254.48C41.8473 254.663 41.5022 254.926 41.2418 255.271C40.9814 255.617 40.8251 256.027 40.773 256.502L40.7633 256.6H39.0738L39.0836 256.502C39.1617 255.734 39.4026 255.063 39.8063 254.49C40.2164 253.917 40.7568 253.471 41.4273 253.152C42.1044 252.833 42.8824 252.674 43.7613 252.674C44.6598 252.674 45.441 252.83 46.1051 253.143C46.7757 253.449 47.2932 253.875 47.6578 254.422C48.0289 254.962 48.2145 255.59 48.2145 256.307V256.326C48.2145 256.906 48.0875 257.42 47.8336 257.869C47.5797 258.318 47.2281 258.693 46.7789 258.992C46.3297 259.292 45.8121 259.503 45.2262 259.627V259.666C46.2548 259.751 47.0849 260.099 47.7164 260.711C48.3544 261.316 48.6734 262.12 48.6734 263.123V263.143C48.6734 263.924 48.4619 264.624 48.0387 265.242C47.6155 265.861 47.0361 266.349 46.3004 266.707C45.5647 267.059 44.7249 267.234 43.7809 267.234Z" fill="black"/>
<path d="M76.0707 267V265.789L80.8754 260.633C81.4874 259.975 81.9626 259.435 82.3012 259.012C82.6397 258.582 82.8741 258.195 83.0043 257.85C83.141 257.505 83.2094 257.127 83.2094 256.717V256.697C83.2094 256.209 83.0987 255.773 82.8773 255.389C82.6625 254.998 82.3565 254.692 81.9594 254.471C81.5622 254.243 81.0935 254.129 80.5531 254.129C79.9867 254.129 79.4854 254.246 79.0492 254.48C78.6195 254.715 78.2842 255.04 78.0434 255.457C77.8025 255.867 77.682 256.342 77.682 256.883L77.6723 256.912L75.9828 256.902L75.973 256.883C75.9796 256.056 76.1814 255.32 76.5785 254.676C76.9822 254.025 77.5355 253.517 78.2387 253.152C78.9418 252.781 79.7393 252.596 80.6313 252.596C81.4581 252.596 82.2003 252.768 82.8578 253.113C83.5219 253.458 84.0427 253.927 84.4203 254.52C84.8044 255.112 84.9965 255.786 84.9965 256.541V256.561C84.9965 257.088 84.9021 257.599 84.7133 258.094C84.5245 258.582 84.1957 259.129 83.727 259.734C83.2582 260.333 82.5941 261.072 81.7348 261.951L78.0434 265.76L78.5023 264.891V265.76L78.0531 265.418H85.2309V267H76.0707ZM93.6773 267V264.08H86.7633V262.479C87.1539 261.84 87.5478 261.196 87.9449 260.545C88.3486 259.894 88.7522 259.243 89.1559 258.592C89.566 257.941 89.9762 257.296 90.3863 256.658C90.7965 256.014 91.2066 255.379 91.6168 254.754C92.027 254.122 92.4306 253.507 92.8277 252.908H95.3961V262.508H97.3883V264.08H95.3961V267H93.6773ZM88.5406 262.518H93.6871V254.51H93.5797C93.2542 254.998 92.9221 255.503 92.5836 256.023C92.2516 256.538 91.913 257.062 91.568 257.596C91.2229 258.13 90.8779 258.667 90.5328 259.207C90.1943 259.747 89.8557 260.288 89.5172 260.828C89.1852 261.362 88.8596 261.893 88.5406 262.42V262.518Z" fill="black"/>
<path d="M124.649 267V265.789L129.454 260.633C130.065 259.975 130.541 259.435 130.879 259.012C131.218 258.582 131.452 258.195 131.582 257.85C131.719 257.505 131.788 257.127 131.788 256.717V256.697C131.788 256.209 131.677 255.773 131.455 255.389C131.241 254.998 130.935 254.692 130.538 254.471C130.14 254.243 129.672 254.129 129.131 254.129C128.565 254.129 128.064 254.246 127.627 254.48C127.198 254.715 126.862 255.04 126.621 255.457C126.381 255.867 126.26 256.342 126.26 256.883L126.25 256.912L124.561 256.902L124.551 256.883C124.558 256.056 124.76 255.32 125.157 254.676C125.56 254.025 126.114 253.517 126.817 253.152C127.52 252.781 128.317 252.596 129.209 252.596C130.036 252.596 130.778 252.768 131.436 253.113C132.1 253.458 132.621 253.927 132.998 254.52C133.383 255.112 133.575 255.786 133.575 256.541V256.561C133.575 257.088 133.48 257.599 133.291 258.094C133.103 258.582 132.774 259.129 132.305 259.734C131.836 260.333 131.172 261.072 130.313 261.951L126.621 265.76L127.08 264.891V265.76L126.631 265.418H133.809V267H124.649ZM140.771 267.312C139.892 267.312 139.108 267.14 138.418 266.795C137.734 266.45 137.184 265.978 136.767 265.379C136.351 264.78 136.106 264.106 136.035 263.357L136.025 263.25H137.724L137.734 263.328C137.793 263.777 137.959 264.188 138.232 264.559C138.505 264.93 138.86 265.223 139.296 265.438C139.739 265.652 140.237 265.76 140.791 265.76C141.416 265.76 141.966 265.623 142.441 265.35C142.923 265.07 143.297 264.686 143.564 264.197C143.838 263.709 143.974 263.149 143.974 262.518V262.498C143.974 261.88 143.838 261.329 143.564 260.848C143.291 260.359 142.916 259.979 142.441 259.705C141.972 259.432 141.432 259.295 140.82 259.295C140.351 259.295 139.918 259.367 139.521 259.51C139.124 259.653 138.769 259.868 138.457 260.154C138.333 260.271 138.216 260.398 138.105 260.535C138.001 260.672 137.903 260.825 137.812 260.994H136.279L137.021 252.908H144.912V254.48H138.418L137.939 259.236H138.066C138.281 258.917 138.541 258.65 138.847 258.436C139.16 258.221 139.508 258.058 139.892 257.947C140.283 257.83 140.693 257.771 141.123 257.771C142.015 257.771 142.802 257.977 143.486 258.387C144.176 258.79 144.716 259.347 145.107 260.057C145.504 260.76 145.703 261.564 145.703 262.469V262.488C145.703 263.432 145.491 264.269 145.068 264.998C144.645 265.721 144.062 266.287 143.32 266.697C142.584 267.107 141.735 267.312 140.771 267.312Z" fill="black"/>
<circle opacity="0.12" cx="183.5" cy="260" r="22" fill="#007AFF"/>
<path d="M170.246 269V267.195L176.152 261.23C176.902 260.473 177.477 259.844 177.875 259.344C178.273 258.844 178.547 258.398 178.695 258.008C178.844 257.617 178.918 257.199 178.918 256.754V256.73C178.918 256.191 178.793 255.715 178.543 255.301C178.301 254.879 177.957 254.551 177.512 254.316C177.074 254.074 176.562 253.953 175.977 253.953C175.328 253.953 174.75 254.09 174.242 254.363C173.734 254.629 173.336 254.992 173.047 255.453C172.758 255.914 172.613 256.434 172.613 257.012L172.602 257.082H170.117L170.105 257.012C170.113 255.996 170.371 255.098 170.879 254.316C171.395 253.527 172.098 252.91 172.988 252.465C173.879 252.012 174.875 251.785 175.977 251.785C177.055 251.785 178.012 251.992 178.848 252.406C179.684 252.82 180.34 253.391 180.816 254.117C181.293 254.836 181.531 255.652 181.531 256.566V256.59C181.531 257.23 181.414 257.844 181.18 258.43C180.945 259.008 180.543 259.648 179.973 260.352C179.402 261.055 178.609 261.906 177.594 262.906L172.941 267.488L173.797 265.883V267.488L172.941 266.773H181.789V269H170.246ZM190.672 269.305C189.805 269.305 188.973 269.148 188.176 268.836C187.387 268.516 186.68 268.016 186.055 267.336C185.43 266.656 184.934 265.781 184.566 264.711C184.207 263.633 184.027 262.328 184.027 260.797V260.773C184.027 258.891 184.293 257.277 184.824 255.934C185.363 254.59 186.137 253.562 187.145 252.852C188.152 252.141 189.359 251.785 190.766 251.785C191.773 251.785 192.68 251.965 193.484 252.324C194.297 252.684 194.969 253.184 195.5 253.824C196.039 254.465 196.398 255.203 196.578 256.039L196.613 256.18H193.977L193.93 256.062C193.773 255.641 193.547 255.277 193.25 254.973C192.961 254.66 192.605 254.422 192.184 254.258C191.762 254.086 191.285 254 190.754 254C189.793 254 189.008 254.281 188.398 254.844C187.797 255.398 187.348 256.141 187.051 257.07C186.762 258 186.598 259.023 186.559 260.141C186.551 260.234 186.547 260.328 186.547 260.422C186.547 260.516 186.547 260.609 186.547 260.703L187.062 263.504C187.062 264.168 187.219 264.773 187.531 265.32C187.852 265.859 188.281 266.289 188.82 266.609C189.367 266.93 189.973 267.09 190.637 267.09C191.301 267.09 191.902 266.934 192.441 266.621C192.988 266.309 193.422 265.887 193.742 265.355C194.062 264.816 194.223 264.219 194.223 263.562V263.539C194.223 262.859 194.066 262.254 193.754 261.723C193.449 261.191 193.031 260.777 192.5 260.48C191.969 260.184 191.359 260.035 190.672 260.035C189.992 260.035 189.379 260.184 188.832 260.48C188.285 260.777 187.852 261.188 187.531 261.711C187.219 262.227 187.062 262.816 187.062 263.48V263.504H186.359V260.598H186.641C186.859 260.098 187.188 259.645 187.625 259.238C188.062 258.832 188.586 258.508 189.195 258.266C189.812 258.023 190.504 257.902 191.27 257.902C192.355 257.902 193.316 258.145 194.152 258.629C194.988 259.105 195.645 259.766 196.121 260.609C196.598 261.445 196.836 262.398 196.836 263.469V263.492C196.836 264.617 196.566 265.617 196.027 266.492C195.496 267.367 194.766 268.055 193.836 268.555C192.914 269.055 191.859 269.305 190.672 269.305Z" fill="#007AFF"/>
<path d="M222.108 267V265.789L226.913 260.633C227.524 259.975 228 259.435 228.338 259.012C228.677 258.582 228.911 258.195 229.041 257.85C229.178 257.505 229.246 257.127 229.246 256.717V256.697C229.246 256.209 229.136 255.773 228.914 255.389C228.7 254.998 228.394 254.692 227.996 254.471C227.599 254.243 227.131 254.129 226.59 254.129C226.024 254.129 225.523 254.246 225.086 254.48C224.657 254.715 224.321 255.04 224.08 255.457C223.84 255.867 223.719 256.342 223.719 256.883L223.709 256.912L222.02 256.902L222.01 256.883C222.017 256.056 222.218 255.32 222.616 254.676C223.019 254.025 223.573 253.517 224.276 253.152C224.979 252.781 225.776 252.596 226.668 252.596C227.495 252.596 228.237 252.768 228.895 253.113C229.559 253.458 230.08 253.927 230.457 254.52C230.842 255.112 231.034 255.786 231.034 256.541V256.561C231.034 257.088 230.939 257.599 230.75 258.094C230.562 258.582 230.233 259.129 229.764 259.734C229.295 260.333 228.631 261.072 227.772 261.951L224.08 265.76L224.539 264.891V265.76L224.09 265.418H231.268V267H222.108ZM234.187 267L240.525 254.588V254.48H232.976V252.908H242.302V254.539L236.033 267H234.187Z" fill="black"/>
<path d="M269.954 267V265.789L274.758 260.633C275.37 259.975 275.845 259.435 276.184 259.012C276.523 258.582 276.757 258.195 276.887 257.85C277.024 257.505 277.092 257.127 277.092 256.717V256.697C277.092 256.209 276.982 255.773 276.76 255.389C276.545 254.998 276.239 254.692 275.842 254.471C275.445 254.243 274.976 254.129 274.436 254.129C273.87 254.129 273.368 254.246 272.932 254.48C272.502 254.715 272.167 255.04 271.926 255.457C271.685 255.867 271.565 256.342 271.565 256.883L271.555 256.912L269.866 256.902L269.856 256.883C269.862 256.056 270.064 255.32 270.461 254.676C270.865 254.025 271.418 253.517 272.121 253.152C272.825 252.781 273.622 252.596 274.514 252.596C275.341 252.596 276.083 252.768 276.741 253.113C277.405 253.458 277.926 253.927 278.303 254.52C278.687 255.112 278.879 255.786 278.879 256.541V256.561C278.879 257.088 278.785 257.599 278.596 258.094C278.407 258.582 278.079 259.129 277.61 259.734C277.141 260.333 276.477 261.072 275.618 261.951L271.926 265.76L272.385 264.891V265.76L271.936 265.418H279.114V267H269.954ZM286.222 267.234C285.226 267.234 284.344 267.062 283.576 266.717C282.808 266.372 282.202 265.896 281.759 265.291C281.323 264.679 281.105 263.979 281.105 263.191V263.172C281.105 262.592 281.232 262.055 281.486 261.561C281.74 261.066 282.095 260.646 282.55 260.301C283.006 259.949 283.533 259.705 284.132 259.568V259.529C283.364 259.288 282.752 258.891 282.296 258.338C281.841 257.785 281.613 257.137 281.613 256.395V256.375C281.613 255.665 281.811 255.034 282.209 254.48C282.606 253.921 283.153 253.481 283.849 253.162C284.546 252.837 285.337 252.674 286.222 252.674C287.114 252.674 287.905 252.837 288.595 253.162C289.292 253.481 289.839 253.921 290.236 254.48C290.633 255.034 290.832 255.665 290.832 256.375V256.395C290.832 257.137 290.604 257.785 290.148 258.338C289.699 258.891 289.087 259.288 288.312 259.529V259.568C288.918 259.705 289.445 259.949 289.894 260.301C290.35 260.646 290.705 261.066 290.959 261.561C291.213 262.055 291.339 262.592 291.339 263.172V263.191C291.339 263.979 291.121 264.679 290.685 265.291C290.249 265.896 289.643 266.372 288.869 266.717C288.101 267.062 287.218 267.234 286.222 267.234ZM286.222 265.701C286.873 265.701 287.446 265.59 287.941 265.369C288.442 265.141 288.836 264.832 289.123 264.441C289.409 264.044 289.552 263.592 289.552 263.084V263.064C289.552 262.55 289.409 262.094 289.123 261.697C288.843 261.3 288.452 260.988 287.951 260.76C287.449 260.532 286.873 260.418 286.222 260.418C285.571 260.418 284.995 260.532 284.494 260.76C283.992 260.988 283.599 261.3 283.312 261.697C283.032 262.094 282.892 262.55 282.892 263.064V263.084C282.892 263.592 283.035 264.044 283.322 264.441C283.608 264.832 284.002 265.141 284.504 265.369C285.005 265.59 285.578 265.701 286.222 265.701ZM286.222 258.875C286.789 258.875 287.287 258.777 287.716 258.582C288.146 258.38 288.481 258.104 288.722 257.752C288.963 257.4 289.084 256.997 289.084 256.541V256.521C289.084 256.066 288.963 255.662 288.722 255.311C288.481 254.959 288.146 254.686 287.716 254.49C287.287 254.288 286.789 254.188 286.222 254.188C285.656 254.188 285.158 254.288 284.728 254.49C284.298 254.686 283.963 254.959 283.722 255.311C283.481 255.662 283.361 256.066 283.361 256.521V256.541C283.361 256.997 283.481 257.4 283.722 257.752C283.963 258.104 284.298 258.38 284.728 258.582C285.158 258.777 285.656 258.875 286.222 258.875Z" fill="black"/>
<path d="M318.424 267V265.789L323.229 260.633C323.841 259.975 324.316 259.435 324.655 259.012C324.993 258.582 325.228 258.195 325.358 257.85C325.495 257.505 325.563 257.127 325.563 256.717V256.697C325.563 256.209 325.452 255.773 325.231 255.389C325.016 254.998 324.71 254.692 324.313 254.471C323.916 254.243 323.447 254.129 322.907 254.129C322.34 254.129 321.839 254.246 321.403 254.48C320.973 254.715 320.638 255.04 320.397 255.457C320.156 255.867 320.036 256.342 320.036 256.883L320.026 256.912L318.336 256.902L318.327 256.883C318.333 256.056 318.535 255.32 318.932 254.676C319.336 254.025 319.889 253.517 320.592 253.152C321.295 252.781 322.093 252.596 322.985 252.596C323.812 252.596 324.554 252.768 325.211 253.113C325.875 253.458 326.396 253.927 326.774 254.52C327.158 255.112 327.35 255.786 327.35 256.541V256.561C327.35 257.088 327.256 257.599 327.067 258.094C326.878 258.582 326.549 259.129 326.08 259.734C325.612 260.333 324.948 261.072 324.088 261.951L320.397 265.76L320.856 264.891V265.76L320.407 265.418H327.584V267H318.424ZM334.556 252.596C335.201 252.596 335.839 252.719 336.47 252.967C337.102 253.214 337.671 253.615 338.179 254.168C338.694 254.721 339.104 255.451 339.41 256.355C339.716 257.26 339.869 258.374 339.869 259.695V259.715C339.869 261.31 339.654 262.674 339.224 263.807C338.795 264.939 338.176 265.809 337.369 266.414C336.561 267.013 335.585 267.312 334.439 267.312C333.651 267.312 332.938 267.169 332.3 266.883C331.662 266.59 331.132 266.186 330.709 265.672C330.285 265.151 329.992 264.546 329.83 263.855L329.8 263.729H331.568L331.607 263.836C331.75 264.227 331.952 264.565 332.213 264.852C332.479 265.132 332.802 265.35 333.179 265.506C333.557 265.662 333.983 265.74 334.459 265.74C335.318 265.74 336.015 265.49 336.548 264.988C337.082 264.487 337.479 263.823 337.74 262.996C338 262.169 338.147 261.264 338.179 260.281C338.186 260.197 338.189 260.115 338.189 260.037C338.189 259.952 338.189 259.871 338.189 259.793L337.769 257.459C337.769 256.84 337.626 256.284 337.339 255.789C337.06 255.288 336.679 254.891 336.197 254.598C335.715 254.305 335.175 254.158 334.576 254.158C333.99 254.158 333.453 254.301 332.964 254.588C332.483 254.874 332.099 255.262 331.812 255.75C331.526 256.238 331.382 256.788 331.382 257.4V257.42C331.382 258.038 331.519 258.592 331.793 259.08C332.066 259.562 332.44 259.939 332.916 260.213C333.397 260.486 333.941 260.623 334.546 260.623C335.158 260.623 335.705 260.49 336.187 260.223C336.675 259.949 337.06 259.575 337.339 259.1C337.626 258.618 337.769 258.074 337.769 257.469V257.459H338.345V259.959H338.033C337.864 260.35 337.6 260.714 337.242 261.053C336.89 261.385 336.461 261.652 335.953 261.854C335.451 262.055 334.882 262.156 334.244 262.156C333.365 262.156 332.574 261.954 331.871 261.551C331.174 261.141 330.624 260.581 330.22 259.871C329.817 259.155 329.615 258.351 329.615 257.459V257.439C329.615 256.502 329.826 255.669 330.25 254.939C330.679 254.21 331.265 253.637 332.007 253.221C332.756 252.804 333.606 252.596 334.556 252.596Z" fill="black"/>
<path d="M32.0336 318.234C31.0635 318.234 30.2172 318.068 29.4945 317.736C28.7719 317.404 28.199 316.949 27.7758 316.369C27.3591 315.79 27.1182 315.129 27.0531 314.387L27.0434 314.27H28.7328L28.7426 314.367C28.7947 314.829 28.9607 315.236 29.2406 315.588C29.5271 315.939 29.9079 316.216 30.3832 316.418C30.8585 316.613 31.4086 316.711 32.0336 316.711C32.6521 316.711 33.1924 316.604 33.6547 316.389C34.1234 316.174 34.488 315.878 34.7484 315.5C35.0089 315.116 35.1391 314.676 35.1391 314.182V314.162C35.1391 313.296 34.8493 312.632 34.2699 312.17C33.697 311.701 32.9158 311.467 31.9262 311.467H30.1586V309.982H31.848C32.4079 309.982 32.9027 309.878 33.3324 309.67C33.7621 309.455 34.0974 309.165 34.3383 308.801C34.5792 308.43 34.6996 308.01 34.6996 307.541V307.521C34.6996 307.027 34.5954 306.607 34.3871 306.262C34.1788 305.917 33.8728 305.653 33.4691 305.471C33.072 305.288 32.587 305.197 32.0141 305.197C31.4607 305.197 30.9659 305.292 30.5297 305.48C30.1 305.663 29.7549 305.926 29.4945 306.271C29.2341 306.617 29.0779 307.027 29.0258 307.502L29.016 307.6H27.3266L27.3363 307.502C27.4145 306.734 27.6553 306.063 28.059 305.49C28.4691 304.917 29.0095 304.471 29.6801 304.152C30.3572 303.833 31.1352 303.674 32.0141 303.674C32.9125 303.674 33.6938 303.83 34.3578 304.143C35.0284 304.449 35.546 304.875 35.9105 305.422C36.2816 305.962 36.4672 306.59 36.4672 307.307V307.326C36.4672 307.906 36.3402 308.42 36.0863 308.869C35.8324 309.318 35.4809 309.693 35.0316 309.992C34.5824 310.292 34.0648 310.503 33.4789 310.627V310.666C34.5076 310.751 35.3376 311.099 35.9691 311.711C36.6072 312.316 36.9262 313.12 36.9262 314.123V314.143C36.9262 314.924 36.7146 315.624 36.2914 316.242C35.8682 316.861 35.2888 317.349 34.5531 317.707C33.8174 318.059 32.9776 318.234 32.0336 318.234ZM43.9469 318.312C42.8987 318.312 42.0003 318.013 41.2516 317.414C40.5094 316.815 39.9365 315.965 39.5328 314.865C39.1357 313.765 38.9371 312.463 38.9371 310.959V310.939C38.9371 309.436 39.1357 308.137 39.5328 307.043C39.9365 305.943 40.5094 305.093 41.2516 304.494C42.0003 303.895 42.8987 303.596 43.9469 303.596C45.0016 303.596 45.9033 303.895 46.652 304.494C47.4007 305.093 47.9768 305.943 48.3805 307.043C48.7841 308.137 48.9859 309.436 48.9859 310.939V310.959C48.9859 312.463 48.7841 313.765 48.3805 314.865C47.9768 315.965 47.4007 316.815 46.652 317.414C45.9033 318.013 45.0016 318.312 43.9469 318.312ZM43.9469 316.779C44.637 316.779 45.2229 316.542 45.7047 316.066C46.193 315.591 46.5673 314.921 46.8277 314.055C47.0882 313.182 47.2184 312.15 47.2184 310.959V310.939C47.2184 309.748 47.0882 308.719 46.8277 307.854C46.5673 306.988 46.193 306.32 45.7047 305.852C45.2229 305.376 44.637 305.139 43.9469 305.139C43.2698 305.139 42.6871 305.376 42.1988 305.852C41.7171 306.32 41.346 306.988 41.0855 307.854C40.8316 308.719 40.7047 309.748 40.7047 310.939V310.959C40.7047 312.15 40.8316 313.182 41.0855 314.055C41.346 314.921 41.7171 315.591 42.1988 316.066C42.6871 316.542 43.2698 316.779 43.9469 316.779Z" fill="black"/>
<path d="M153.469 31.3726V22.9141H155.544V31.3726C155.544 32.175 155.372 32.8584 155.029 33.4229C154.686 33.9873 154.219 34.4189 153.626 34.7178C153.034 35.0166 152.362 35.166 151.609 35.166C150.84 35.166 150.157 35.036 149.559 34.7759C148.967 34.5158 148.502 34.1174 148.165 33.5806C147.827 33.0438 147.658 32.3631 147.658 31.5386H149.75C149.75 32.0145 149.825 32.3991 149.974 32.6924C150.129 32.9801 150.345 33.1904 150.622 33.3232C150.904 33.4505 151.233 33.5142 151.609 33.5142C151.969 33.5142 152.287 33.4339 152.564 33.2734C152.846 33.1074 153.068 32.8667 153.228 32.5513C153.389 32.2303 153.469 31.8374 153.469 31.3726ZM162.647 32.8833V26.0186H164.656V35H162.764L162.647 32.8833ZM162.93 31.0156L163.602 30.999C163.602 31.6022 163.536 32.1584 163.403 32.6675C163.27 33.1711 163.065 33.611 162.789 33.9873C162.512 34.3581 162.158 34.6486 161.726 34.8589C161.294 35.0636 160.777 35.166 160.174 35.166C159.737 35.166 159.335 35.1024 158.97 34.9751C158.605 34.8478 158.29 34.6514 158.024 34.3857C157.764 34.1201 157.562 33.7743 157.418 33.3481C157.274 32.922 157.202 32.4129 157.202 31.8208V26.0186H159.203V31.8374C159.203 32.1639 159.241 32.4378 159.319 32.6592C159.396 32.875 159.501 33.0493 159.634 33.1821C159.767 33.3149 159.922 33.409 160.099 33.4644C160.276 33.5197 160.464 33.5474 160.664 33.5474C161.234 33.5474 161.682 33.4367 162.008 33.2153C162.34 32.9884 162.576 32.6841 162.714 32.3022C162.858 31.9204 162.93 31.4915 162.93 31.0156ZM168.19 27.936V35H166.19V26.0186H168.074L168.19 27.936ZM167.833 30.1772L167.186 30.1689C167.192 29.5326 167.28 28.9487 167.452 28.4175C167.629 27.8862 167.872 27.4297 168.182 27.0479C168.498 26.666 168.874 26.3727 169.311 26.168C169.748 25.9577 170.235 25.8525 170.772 25.8525C171.204 25.8525 171.594 25.9134 171.942 26.0352C172.297 26.1514 172.598 26.3423 172.847 26.6079C173.102 26.8735 173.295 27.2194 173.428 27.6455C173.561 28.0661 173.627 28.5835 173.627 29.1978V35H171.619V29.1895C171.619 28.7578 171.555 28.4175 171.428 28.1685C171.306 27.9139 171.126 27.734 170.888 27.6289C170.656 27.5182 170.365 27.4629 170.017 27.4629C169.674 27.4629 169.366 27.5348 169.095 27.6787C168.824 27.8226 168.594 28.019 168.406 28.2681C168.224 28.5171 168.083 28.8049 167.983 29.1313C167.883 29.4578 167.833 29.8065 167.833 30.1772ZM177.145 22.25V35H175.153V22.25H177.145ZM176.796 30.1772L176.149 30.1689C176.154 29.5492 176.24 28.9764 176.406 28.4507C176.578 27.925 176.816 27.4684 177.12 27.0811C177.43 26.6882 177.801 26.3866 178.232 26.1763C178.664 25.9604 179.143 25.8525 179.668 25.8525C180.111 25.8525 180.51 25.9134 180.864 26.0352C181.223 26.1569 181.533 26.3534 181.793 26.6245C182.054 26.8901 182.25 27.2388 182.383 27.6704C182.521 28.0965 182.59 28.6167 182.59 29.231V35H180.582V29.2144C180.582 28.7827 180.518 28.4396 180.391 28.1851C180.269 27.9305 180.089 27.7479 179.851 27.6372C179.613 27.521 179.323 27.4629 178.979 27.4629C178.62 27.4629 178.302 27.5348 178.025 27.6787C177.754 27.8226 177.527 28.019 177.344 28.2681C177.162 28.5171 177.023 28.8049 176.929 29.1313C176.841 29.4578 176.796 29.8065 176.796 30.1772ZM183.734 30.6089V30.418C183.734 29.7705 183.828 29.1701 184.016 28.6167C184.204 28.0578 184.475 27.5736 184.83 27.1641C185.189 26.749 185.626 26.4281 186.141 26.2012C186.661 25.9688 187.248 25.8525 187.901 25.8525C188.559 25.8525 189.146 25.9688 189.661 26.2012C190.181 26.4281 190.621 26.749 190.98 27.1641C191.34 27.5736 191.614 28.0578 191.802 28.6167C191.99 29.1701 192.084 29.7705 192.084 30.418V30.6089C192.084 31.2563 191.99 31.8568 191.802 32.4102C191.614 32.9635 191.34 33.4478 190.98 33.8628C190.621 34.2723 190.184 34.5933 189.669 34.8257C189.154 35.0526 188.57 35.166 187.917 35.166C187.259 35.166 186.67 35.0526 186.149 34.8257C185.635 34.5933 185.198 34.2723 184.838 33.8628C184.478 33.4478 184.204 32.9635 184.016 32.4102C183.828 31.8568 183.734 31.2563 183.734 30.6089ZM185.734 30.418V30.6089C185.734 31.0129 185.776 31.3947 185.859 31.7544C185.942 32.1141 186.072 32.4295 186.249 32.7007C186.426 32.9718 186.653 33.1849 186.93 33.3398C187.206 33.4948 187.536 33.5723 187.917 33.5723C188.288 33.5723 188.609 33.4948 188.88 33.3398C189.157 33.1849 189.384 32.9718 189.561 32.7007C189.738 32.4295 189.868 32.1141 189.951 31.7544C190.04 31.3947 190.084 31.0129 190.084 30.6089V30.418C190.084 30.0195 190.04 29.6432 189.951 29.2891C189.868 28.9294 189.735 28.6112 189.553 28.3345C189.376 28.0578 189.149 27.842 188.872 27.687C188.601 27.5265 188.277 27.4463 187.901 27.4463C187.525 27.4463 187.198 27.5265 186.921 27.687C186.65 27.842 186.426 28.0578 186.249 28.3345C186.072 28.6112 185.942 28.9294 185.859 29.2891C185.776 29.6432 185.734 30.0195 185.734 30.418Z" fill="black"/>
<path d="M25.7988 68.104C25.3048 68.104 24.8715 68.091 24.4988 68.065C24.1348 68.039 23.7708 68.0087 23.4068 67.974V58.926C23.8141 58.8827 24.2128 58.8523 24.6028 58.835C24.9928 58.809 25.4391 58.796 25.9418 58.796C26.7218 58.796 27.3935 58.9173 27.9568 59.16C28.5288 59.4027 28.9968 59.7363 29.3608 60.161C29.7335 60.5857 30.0065 61.0797 30.1798 61.643C30.3618 62.1977 30.4528 62.7957 30.4528 63.437C30.4528 64.0697 30.3618 64.6677 30.1798 65.231C29.9978 65.7943 29.7162 66.2927 29.3348 66.726C28.9621 67.1507 28.4812 67.4887 27.8918 67.74C27.3112 67.9827 26.6135 68.104 25.7988 68.104ZM25.8378 67.025C26.6178 67.025 27.2548 66.8733 27.7488 66.57C28.2428 66.2667 28.6068 65.8463 28.8408 65.309C29.0748 64.763 29.1918 64.139 29.1918 63.437C29.1918 62.813 29.0748 62.228 28.8408 61.682C28.6068 61.136 28.2472 60.6983 27.7618 60.369C27.2765 60.031 26.6568 59.862 25.9028 59.862C25.6515 59.862 25.4218 59.8707 25.2138 59.888C25.0058 59.8967 24.8151 59.9097 24.6418 59.927V66.96C24.8238 66.986 25.0145 67.0033 25.2138 67.012C25.4131 67.0207 25.6211 67.025 25.8378 67.025ZM34.9851 68.156C34.3438 68.156 33.7675 68.0087 33.2561 67.714C32.7448 67.4107 32.3418 66.9947 32.0471 66.466C31.7611 65.9287 31.6181 65.3133 31.6181 64.62C31.6181 63.892 31.7655 63.2637 32.0601 62.735C32.3548 62.2063 32.7578 61.799 33.2691 61.513C33.7805 61.227 34.3525 61.084 34.9851 61.084C35.6178 61.084 36.1855 61.227 36.6881 61.513C37.1995 61.799 37.6025 62.2063 37.8971 62.735C38.2005 63.255 38.3521 63.8747 38.3521 64.594C38.3521 65.3133 38.2048 65.9417 37.9101 66.479C37.6155 67.0077 37.2125 67.4193 36.7011 67.714C36.1985 68.0087 35.6265 68.156 34.9851 68.156ZM34.9851 67.116C35.6698 67.116 36.2028 66.8863 36.5841 66.427C36.9655 65.959 37.1561 65.3567 37.1561 64.62C37.1561 64.1693 37.0608 63.7577 36.8701 63.385C36.6795 63.0037 36.4195 62.7003 36.0901 62.475C35.7695 62.241 35.4011 62.124 34.9851 62.124C34.3005 62.124 33.7675 62.3493 33.3861 62.8C33.0048 63.2507 32.8141 63.8487 32.8141 64.594C32.8141 65.0447 32.9095 65.465 33.1001 65.855C33.2908 66.2363 33.5465 66.544 33.8671 66.778C34.1965 67.0033 34.5691 67.116 34.9851 67.116ZM39.9077 68V61.24H41.0387V62.371C41.2813 62.007 41.589 61.7037 41.9617 61.461C42.3343 61.2097 42.759 61.084 43.2357 61.084C43.773 61.084 44.2107 61.214 44.5487 61.474C44.8953 61.734 45.138 62.0807 45.2767 62.514C45.5453 62.1153 45.8617 61.7773 46.2257 61.5C46.5983 61.2227 47.0577 61.084 47.6037 61.084C48.3403 61.084 48.8863 61.318 49.2417 61.786C49.6057 62.2453 49.7877 62.8477 49.7877 63.593V68H48.6177V63.684C48.6177 63.216 48.5093 62.839 48.2927 62.553C48.076 62.2583 47.777 62.111 47.3957 62.111C47.0057 62.111 46.6417 62.2583 46.3037 62.553C45.9743 62.839 45.684 63.177 45.4327 63.567V68H44.2627V63.684C44.2627 63.216 44.1543 62.839 43.9377 62.553C43.721 62.2583 43.422 62.111 43.0407 62.111C42.6593 62.111 42.2997 62.254 41.9617 62.54C41.6237 62.8173 41.329 63.1467 41.0777 63.528V68H39.9077Z" fill="black"/>
<path d="M70.8998 68.156C70.2671 68.156 69.6908 68.0737 69.1708 67.909C68.6508 67.7357 68.2131 67.5103 67.8578 67.233L68.4818 66.193C68.7938 66.453 69.1448 66.6653 69.5348 66.83C69.9248 66.9947 70.3798 67.077 70.8998 67.077C71.5238 67.077 72.0178 66.947 72.3818 66.687C72.7458 66.427 72.9278 66.076 72.9278 65.634C72.9278 65.3827 72.8758 65.1617 72.7718 64.971C72.6678 64.7717 72.4641 64.581 72.1608 64.399C71.8661 64.2083 71.4284 64.0047 70.8478 63.788C70.2238 63.5453 69.7254 63.3027 69.3528 63.06C68.9801 62.8087 68.7114 62.527 68.5468 62.215C68.3908 61.8943 68.3128 61.5173 68.3128 61.084C68.3128 60.6507 68.4298 60.2607 68.6638 59.914C68.9064 59.5587 69.2574 59.277 69.7168 59.069C70.1848 58.8523 70.7481 58.744 71.4068 58.744C71.9441 58.744 72.4251 58.8003 72.8498 58.913C73.2831 59.017 73.7034 59.1687 74.1108 59.368L73.6558 60.421C73.3611 60.2477 73.0144 60.1047 72.6158 59.992C72.2258 59.8707 71.8141 59.81 71.3808 59.81C70.8088 59.81 70.3581 59.9227 70.0288 60.148C69.6994 60.3733 69.5348 60.6637 69.5348 61.019C69.5348 61.2443 69.5824 61.4437 69.6778 61.617C69.7731 61.7903 69.9594 61.9593 70.2368 62.124C70.5228 62.2887 70.9474 62.475 71.5108 62.683C72.1868 62.9343 72.7198 63.1987 73.1098 63.476C73.5084 63.7533 73.7901 64.0567 73.9548 64.386C74.1194 64.7067 74.2018 65.075 74.2018 65.491C74.2018 66.0543 74.0588 66.5353 73.7728 66.934C73.4954 67.3327 73.1054 67.636 72.6028 67.844C72.1088 68.052 71.5411 68.156 70.8998 68.156ZM78.6004 68.156C77.6298 68.156 76.8584 67.8483 76.2864 67.233C75.7231 66.609 75.4414 65.738 75.4414 64.62C75.4414 63.944 75.5671 63.3417 75.8184 62.813C76.0784 62.2757 76.4381 61.8553 76.8974 61.552C77.3568 61.24 77.8898 61.084 78.4964 61.084C79.1464 61.084 79.6838 61.227 80.1084 61.513C80.5418 61.7903 80.8668 62.1673 81.0834 62.644C81.3001 63.1207 81.4084 63.645 81.4084 64.217C81.4084 64.5203 81.3954 64.815 81.3694 65.101H76.6374C76.7154 65.7337 76.9364 66.2277 77.3004 66.583C77.6644 66.9383 78.1454 67.116 78.7434 67.116C79.1334 67.116 79.4844 67.077 79.7964 66.999C80.1084 66.9123 80.4074 66.804 80.6934 66.674L80.9664 67.675C80.6544 67.8137 80.3034 67.9263 79.9134 68.013C79.5234 68.1083 79.0858 68.156 78.6004 68.156ZM76.6244 64.152H80.3294C80.3294 63.4933 80.1648 62.9863 79.8354 62.631C79.5061 62.2757 79.0511 62.098 78.4704 62.098C77.9678 62.098 77.5518 62.2757 77.2224 62.631C76.8931 62.9777 76.6938 63.4847 76.6244 64.152ZM85.4507 71.016C85.0521 71.016 84.6621 70.9683 84.2807 70.873C83.9081 70.7777 83.5744 70.6347 83.2797 70.444L83.7087 69.43C83.9167 69.5947 84.1594 69.729 84.4367 69.833C84.7141 69.9457 85.0521 70.002 85.4507 70.002C86.0661 70.002 86.5471 69.8373 86.8937 69.508C87.2491 69.1873 87.4267 68.6717 87.4267 67.961V67.129C87.2534 67.337 87.0021 67.5363 86.6727 67.727C86.3521 67.909 85.9664 68 85.5157 68C85.0044 68 84.5191 67.87 84.0597 67.61C83.6004 67.3413 83.2277 66.9513 82.9417 66.44C82.6557 65.9287 82.5127 65.3133 82.5127 64.594C82.5127 63.918 82.6514 63.3157 82.9287 62.787C83.2147 62.2583 83.5961 61.8423 84.0727 61.539C84.5494 61.2357 85.0737 61.084 85.6457 61.084C86.0271 61.084 86.3737 61.149 86.6857 61.279C86.9977 61.409 87.2664 61.5693 87.4917 61.76V61.24H88.5577V67.844C88.5577 68.5893 88.4277 69.196 88.1677 69.664C87.9077 70.132 87.5437 70.4743 87.0757 70.691C86.6164 70.9077 86.0747 71.016 85.4507 71.016ZM85.7757 66.96C86.1224 66.96 86.4344 66.882 86.7117 66.726C86.9891 66.57 87.2144 66.388 87.3877 66.18V62.644C87.1971 62.5053 86.9674 62.3797 86.6987 62.267C86.4301 62.1543 86.1181 62.098 85.7627 62.098C85.4074 62.098 85.0737 62.1933 84.7617 62.384C84.4497 62.5747 84.1941 62.852 83.9947 63.216C83.8041 63.5713 83.7087 64.009 83.7087 64.529C83.7087 65.023 83.8041 65.452 83.9947 65.816C84.1941 66.18 84.4497 66.4617 84.7617 66.661C85.0737 66.8603 85.4117 66.96 85.7757 66.96Z" fill="black"/>
<path d="M313.367 70.156C312.734 70.156 312.158 70.0737 311.638 69.909C311.118 69.7357 310.68 69.5103 310.325 69.233L310.949 68.193C311.261 68.453 311.612 68.6653 312.002 68.83C312.392 68.9947 312.847 69.077 313.367 69.077C313.991 69.077 314.485 68.947 314.849 68.687C315.213 68.427 315.395 68.076 315.395 67.634C315.395 67.3827 315.343 67.1617 315.239 66.971C315.135 66.7717 314.931 66.581 314.628 66.399C314.333 66.2083 313.895 66.0047 313.315 65.788C312.691 65.5453 312.192 65.3027 311.82 65.06C311.447 64.8087 311.178 64.527 311.014 64.215C310.858 63.8943 310.78 63.5173 310.78 63.084C310.78 62.6507 310.897 62.2607 311.131 61.914C311.373 61.5587 311.724 61.277 312.184 61.069C312.652 60.8523 313.215 60.744 313.874 60.744C314.411 60.744 314.892 60.8003 315.317 60.913C315.75 61.017 316.17 61.1687 316.578 61.368L316.123 62.421C315.828 62.2477 315.481 62.1047 315.083 61.992C314.693 61.8707 314.281 61.81 313.848 61.81C313.276 61.81 312.825 61.9227 312.496 62.148C312.166 62.3733 312.002 62.6637 312.002 63.019C312.002 63.2443 312.049 63.4437 312.145 63.617C312.24 63.7903 312.426 63.9593 312.704 64.124C312.99 64.2887 313.414 64.475 313.978 64.683C314.654 64.9343 315.187 65.1987 315.577 65.476C315.975 65.7533 316.257 66.0567 316.422 66.386C316.586 66.7067 316.669 67.075 316.669 67.491C316.669 68.0543 316.526 68.5353 316.24 68.934C315.962 69.3327 315.572 69.636 315.07 69.844C314.576 70.052 314.008 70.156 313.367 70.156ZM320.95 70.156C320.387 70.156 319.876 70.013 319.416 69.727C318.957 69.441 318.589 69.038 318.311 68.518C318.043 67.9893 317.908 67.3697 317.908 66.659C317.908 65.983 318.043 65.3763 318.311 64.839C318.589 64.3017 318.966 63.877 319.442 63.565C319.928 63.2443 320.482 63.084 321.106 63.084C321.496 63.084 321.847 63.1533 322.159 63.292C322.48 63.422 322.757 63.5867 322.991 63.786V63.24H324.057V68.362C324.057 68.6913 324.135 68.908 324.291 69.012C324.456 69.1073 324.634 69.155 324.824 69.155L324.577 70.065C323.745 70.065 323.243 69.727 323.069 69.051C322.87 69.3283 322.597 69.584 322.25 69.818C321.912 70.0433 321.479 70.156 320.95 70.156ZM321.21 69.116C321.54 69.116 321.852 69.038 322.146 68.882C322.441 68.7173 322.688 68.5137 322.887 68.271V64.644C322.653 64.4793 322.393 64.3493 322.107 64.254C321.83 64.15 321.535 64.098 321.223 64.098C320.807 64.098 320.439 64.2063 320.118 64.423C319.806 64.631 319.559 64.9257 319.377 65.307C319.195 65.6797 319.104 66.1173 319.104 66.62C319.104 67.1053 319.195 67.5387 319.377 67.92C319.559 68.2927 319.811 68.5873 320.131 68.804C320.452 69.012 320.812 69.116 321.21 69.116ZM329.429 70.156C329.039 70.156 328.67 70.0867 328.324 69.948C327.986 69.8007 327.704 69.6317 327.479 69.441V70H326.387V60.38H327.557V63.942C327.73 63.7427 327.981 63.552 328.311 63.37C328.649 63.1793 329.047 63.084 329.507 63.084C330.027 63.084 330.512 63.2227 330.963 63.5C331.422 63.7687 331.79 64.163 332.068 64.683C332.345 65.1943 332.484 65.8183 332.484 66.555C332.484 67.0923 332.397 67.582 332.224 68.024C332.05 68.466 331.816 68.8473 331.522 69.168C331.236 69.48 330.911 69.7227 330.547 69.896C330.183 70.0693 329.81 70.156 329.429 70.156ZM329.117 69.116C329.541 69.116 329.914 69.012 330.235 68.804C330.564 68.596 330.82 68.3013 331.002 67.92C331.192 67.5387 331.288 67.0967 331.288 66.594C331.288 66.074 331.192 65.6277 331.002 65.255C330.82 64.8823 330.573 64.5963 330.261 64.397C329.957 64.1977 329.619 64.098 329.247 64.098C328.874 64.098 328.536 64.1933 328.233 64.384C327.938 64.566 327.713 64.7653 327.557 64.982V68.596C327.756 68.752 327.99 68.8777 328.259 68.973C328.527 69.0683 328.813 69.116 329.117 69.116Z" fill="black"/>
<path d="M125.303 68V59.992H122.508V58.9H129.333V59.992H126.538V68H125.303ZM132.102 68.156C131.131 68.156 130.36 67.8483 129.788 67.233C129.225 66.609 128.943 65.738 128.943 64.62C128.943 63.944 129.069 63.3417 129.32 62.813C129.58 62.2757 129.94 61.8553 130.399 61.552C130.858 61.24 131.391 61.084 131.998 61.084C132.648 61.084 133.185 61.227 133.61 61.513C134.043 61.7903 134.368 62.1673 134.585 62.644C134.802 63.1207 134.91 63.645 134.91 64.217C134.91 64.5203 134.897 64.815 134.871 65.101H130.139C130.217 65.7337 130.438 66.2277 130.802 66.583C131.166 66.9383 131.647 67.116 132.245 67.116C132.635 67.116 132.986 67.077 133.298 66.999C133.61 66.9123 133.909 66.804 134.195 66.674L134.468 67.675C134.156 67.8137 133.805 67.9263 133.415 68.013C133.025 68.1083 132.587 68.156 132.102 68.156ZM130.126 64.152H133.831C133.831 63.4933 133.666 62.9863 133.337 62.631C133.008 62.2757 132.553 62.098 131.972 62.098C131.469 62.098 131.053 62.2757 130.724 62.631C130.395 62.9777 130.195 63.4847 130.126 64.152ZM136.469 68V61.24H137.6V62.709C137.713 62.423 137.865 62.1587 138.055 61.916C138.246 61.6647 138.484 61.4653 138.77 61.318C139.056 61.162 139.39 61.084 139.771 61.084C139.901 61.084 140.031 61.0927 140.161 61.11C140.291 61.1187 140.4 61.136 140.486 61.162L140.135 62.371C139.971 62.3017 139.776 62.267 139.55 62.267C139.23 62.267 138.922 62.358 138.627 62.54C138.341 62.722 138.103 63.0037 137.912 63.385C137.73 63.7663 137.639 64.2517 137.639 64.841V68H136.469Z" fill="black"/>
<path d="M175.559 68.156C174.9 68.156 174.307 68.0347 173.778 67.792C173.258 67.5407 172.816 67.2027 172.452 66.778C172.088 66.3447 171.811 65.842 171.62 65.27C171.429 64.698 171.334 64.087 171.334 63.437C171.334 62.5443 171.503 61.747 171.841 61.045C172.179 60.3343 172.66 59.7753 173.284 59.368C173.917 58.952 174.675 58.744 175.559 58.744C176.218 58.744 176.807 58.8653 177.327 59.108C177.856 59.3507 178.302 59.6887 178.666 60.122C179.03 60.5553 179.307 61.0537 179.498 61.617C179.697 62.1803 179.797 62.787 179.797 63.437C179.797 64.113 179.702 64.7023 179.511 65.205C179.32 65.699 179.095 66.128 178.835 66.492L179.992 67.129L179.433 68.156L178.172 67.22C177.851 67.4887 177.474 67.714 177.041 67.896C176.608 68.0693 176.114 68.156 175.559 68.156ZM175.533 67.09C175.888 67.09 176.209 67.0467 176.495 66.96C176.79 66.8733 177.041 66.765 177.249 66.635L176.261 66.011L176.781 65.062L177.951 65.907C178.159 65.569 178.306 65.2007 178.393 64.802C178.488 64.3947 178.536 63.9397 178.536 63.437C178.536 62.969 178.467 62.5183 178.328 62.085C178.198 61.6517 178.003 61.266 177.743 60.928C177.492 60.5813 177.18 60.3083 176.807 60.109C176.443 59.9097 176.027 59.81 175.559 59.81C174.935 59.81 174.402 59.9703 173.96 60.291C173.518 60.603 173.18 61.032 172.946 61.578C172.712 62.124 172.595 62.7437 172.595 63.437C172.595 63.905 172.66 64.36 172.79 64.802C172.92 65.2353 173.111 65.6253 173.362 65.972C173.613 66.3187 173.921 66.5917 174.285 66.791C174.649 66.9903 175.065 67.09 175.533 67.09ZM183.824 68.156C183.434 68.156 183.065 68.0737 182.719 67.909C182.372 67.7443 182.09 67.48 181.874 67.116C181.657 66.7433 181.549 66.2493 181.549 65.634V61.24H182.719V65.478C182.719 66.0067 182.831 66.414 183.057 66.7C183.282 66.9773 183.611 67.116 184.045 67.116C184.4 67.116 184.742 67.0467 185.072 66.908C185.41 66.7607 185.709 66.5657 185.969 66.323V61.24H187.139V66.245C187.139 66.6177 187.217 66.8647 187.373 66.986C187.537 67.0987 187.715 67.155 187.906 67.155L187.659 68.065C186.853 68.065 186.354 67.7443 186.164 67.103C185.86 67.415 185.509 67.6707 185.111 67.87C184.712 68.0607 184.283 68.156 183.824 68.156ZM191.919 68.156C191.356 68.156 190.845 68.013 190.385 67.727C189.926 67.441 189.558 67.038 189.28 66.518C189.012 65.9893 188.877 65.3697 188.877 64.659C188.877 63.983 189.012 63.3763 189.28 62.839C189.558 62.3017 189.935 61.877 190.411 61.565C190.897 61.2443 191.451 61.084 192.075 61.084C192.465 61.084 192.816 61.1533 193.128 61.292C193.449 61.422 193.726 61.5867 193.96 61.786V61.24H195.026V66.362C195.026 66.6913 195.104 66.908 195.26 67.012C195.425 67.1073 195.603 67.155 195.793 67.155L195.546 68.065C194.714 68.065 194.212 67.727 194.038 67.051C193.839 67.3283 193.566 67.584 193.219 67.818C192.881 68.0433 192.448 68.156 191.919 68.156ZM192.179 67.116C192.509 67.116 192.821 67.038 193.115 66.882C193.41 66.7173 193.657 66.5137 193.856 66.271V62.644C193.622 62.4793 193.362 62.3493 193.076 62.254C192.799 62.15 192.504 62.098 192.192 62.098C191.776 62.098 191.408 62.2063 191.087 62.423C190.775 62.631 190.528 62.9257 190.346 63.307C190.164 63.6797 190.073 64.1173 190.073 64.62C190.073 65.1053 190.164 65.5387 190.346 65.92C190.528 66.2927 190.78 66.5873 191.1 66.804C191.421 67.012 191.781 67.116 192.179 67.116Z" fill="black"/>
<path d="M220.882 70.156C220.224 70.156 219.63 70.0347 219.101 69.792C218.581 69.5407 218.139 69.2027 217.775 68.778C217.411 68.3447 217.134 67.842 216.943 67.27C216.753 66.698 216.657 66.087 216.657 65.437C216.657 64.5443 216.826 63.747 217.164 63.045C217.502 62.3343 217.983 61.7753 218.607 61.368C219.24 60.952 219.998 60.744 220.882 60.744C221.541 60.744 222.13 60.8653 222.65 61.108C223.179 61.3507 223.625 61.6887 223.989 62.122C224.353 62.5553 224.631 63.0537 224.821 63.617C225.021 64.1803 225.12 64.787 225.12 65.437C225.12 66.113 225.025 66.7023 224.834 67.205C224.644 67.699 224.418 68.128 224.158 68.492L225.315 69.129L224.756 70.156L223.495 69.22C223.175 69.4887 222.798 69.714 222.364 69.896C221.931 70.0693 221.437 70.156 220.882 70.156ZM220.856 69.09C221.212 69.09 221.532 69.0467 221.818 68.96C222.113 68.8733 222.364 68.765 222.572 68.635L221.584 68.011L222.104 67.062L223.274 67.907C223.482 67.569 223.63 67.2007 223.716 66.802C223.812 66.3947 223.859 65.9397 223.859 65.437C223.859 64.969 223.79 64.5183 223.651 64.085C223.521 63.6517 223.326 63.266 223.066 62.928C222.815 62.5813 222.503 62.3083 222.13 62.109C221.766 61.9097 221.35 61.81 220.882 61.81C220.258 61.81 219.725 61.9703 219.283 62.291C218.841 62.603 218.503 63.032 218.269 63.578C218.035 64.124 217.918 64.7437 217.918 65.437C217.918 65.905 217.983 66.36 218.113 66.802C218.243 67.2353 218.434 67.6253 218.685 67.972C218.937 68.3187 219.244 68.5917 219.608 68.791C219.972 68.9903 220.388 69.09 220.856 69.09ZM229.147 70.156C228.757 70.156 228.389 70.0737 228.042 69.909C227.695 69.7443 227.414 69.48 227.197 69.116C226.98 68.7433 226.872 68.2493 226.872 67.634V63.24H228.042V67.478C228.042 68.0067 228.155 68.414 228.38 68.7C228.605 68.9773 228.935 69.116 229.368 69.116C229.723 69.116 230.066 69.0467 230.395 68.908C230.733 68.7607 231.032 68.5657 231.292 68.323V63.24H232.462V68.245C232.462 68.6177 232.54 68.8647 232.696 68.986C232.861 69.0987 233.038 69.155 233.229 69.155L232.982 70.065C232.176 70.065 231.678 69.7443 231.487 69.103C231.184 69.415 230.833 69.6707 230.434 69.87C230.035 70.0607 229.606 70.156 229.147 70.156ZM234.783 70V63.24H235.953V70H234.783ZM235.368 62.083C235.142 62.083 234.947 62.0007 234.783 61.836C234.627 61.6713 234.549 61.4807 234.549 61.264C234.549 61.0127 234.622 60.8133 234.77 60.666C234.917 60.5187 235.116 60.445 235.368 60.445C235.593 60.445 235.784 60.5273 235.94 60.692C236.104 60.848 236.187 61.0387 236.187 61.264C236.187 61.5067 236.113 61.706 235.966 61.862C235.818 62.0093 235.619 62.083 235.368 62.083Z" fill="black"/>
<path d="M262.452 70.156C261.819 70.156 261.243 70.0737 260.723 69.909C260.203 69.7357 259.765 69.5103 259.41 69.233L260.034 68.193C260.346 68.453 260.697 68.6653 261.087 68.83C261.477 68.9947 261.932 69.077 262.452 69.077C263.076 69.077 263.57 68.947 263.934 68.687C264.298 68.427 264.48 68.076 264.48 67.634C264.48 67.3827 264.428 67.1617 264.324 66.971C264.22 66.7717 264.016 66.581 263.713 66.399C263.418 66.2083 262.981 66.0047 262.4 65.788C261.776 65.5453 261.278 65.3027 260.905 65.06C260.532 64.8087 260.264 64.527 260.099 64.215C259.943 63.8943 259.865 63.5173 259.865 63.084C259.865 62.6507 259.982 62.2607 260.216 61.914C260.459 61.5587 260.81 61.277 261.269 61.069C261.737 60.8523 262.3 60.744 262.959 60.744C263.496 60.744 263.977 60.8003 264.402 60.913C264.835 61.017 265.256 61.1687 265.663 61.368L265.208 62.421C264.913 62.2477 264.567 62.1047 264.168 61.992C263.778 61.8707 263.366 61.81 262.933 61.81C262.361 61.81 261.91 61.9227 261.581 62.148C261.252 62.3733 261.087 62.6637 261.087 63.019C261.087 63.2443 261.135 63.4437 261.23 63.617C261.325 63.7903 261.512 63.9593 261.789 64.124C262.075 64.2887 262.5 64.475 263.063 64.683C263.739 64.9343 264.272 65.1987 264.662 65.476C265.061 65.7533 265.342 66.0567 265.507 66.386C265.672 66.7067 265.754 67.075 265.754 67.491C265.754 68.0543 265.611 68.5353 265.325 68.934C265.048 69.3327 264.658 69.636 264.155 69.844C263.661 70.052 263.093 70.156 262.452 70.156ZM270.153 70.156C269.182 70.156 268.411 69.8483 267.839 69.233C267.275 68.609 266.994 67.738 266.994 66.62C266.994 65.944 267.119 65.3417 267.371 64.813C267.631 64.2757 267.99 63.8553 268.45 63.552C268.909 63.24 269.442 63.084 270.049 63.084C270.699 63.084 271.236 63.227 271.661 63.513C272.094 63.7903 272.419 64.1673 272.636 64.644C272.852 65.1207 272.961 65.645 272.961 66.217C272.961 66.5203 272.948 66.815 272.922 67.101H268.19C268.268 67.7337 268.489 68.2277 268.853 68.583C269.217 68.9383 269.698 69.116 270.296 69.116C270.686 69.116 271.037 69.077 271.349 68.999C271.661 68.9123 271.96 68.804 272.246 68.674L272.519 69.675C272.207 69.8137 271.856 69.9263 271.466 70.013C271.076 70.1083 270.638 70.156 270.153 70.156ZM268.177 66.152H271.882C271.882 65.4933 271.717 64.9863 271.388 64.631C271.058 64.2757 270.603 64.098 270.023 64.098C269.52 64.098 269.104 64.2757 268.775 64.631C268.445 64.9777 268.246 65.4847 268.177 66.152ZM278.966 70.117L276.691 67.296L274.442 70.091L273.61 69.363L276.015 66.568L273.701 63.89L274.611 63.097L276.704 65.801L278.758 63.149L279.629 63.89L277.38 66.516L279.85 69.363L278.966 70.117Z" fill="black"/>
<path d="M213 34V24L218 29L213 34Z" fill="#1D1B20"/>
<path d="M127 34L122 29L127 24V34Z" fill="#1D1B20"/>
</svg>
