<svg width="30" height="30" viewBox="0 0 30 30" fill="none" xmlns="http://www.w3.org/2000/svg">
<path d="M16.5604 6.745H6.69464V8.35573H16.5604V6.745Z" fill="white"/>
<path d="M20.192 7.09013L19.3282 6.17211L18.1552 7.27587L20.2671 9.52053L23.2741 5.9004L22.035 4.87134L20.192 7.09013Z" fill="white"/>
<path d="M16.5604 11.7786H6.69464V13.3893H16.5604V11.7786Z" fill="white"/>
<path d="M20.192 12.1237L19.3282 11.2057L18.1552 12.3094L20.2671 14.5541L23.2741 10.934L22.035 9.90491L20.192 12.1237Z" fill="white"/>
<path d="M16.5604 16.8121H6.69464V18.4229H16.5604V16.8121Z" fill="white"/>
<path d="M20.192 17.1573L19.3282 16.2392L18.1552 17.343L20.2671 19.5877L23.2741 15.9675L22.035 14.9385L20.192 17.1573Z" fill="white"/>
<path d="M16.5604 21.8456H6.69464V23.4563H16.5604V21.8456Z" fill="white"/>
<path d="M20.192 22.1908L19.3282 21.2728L18.1552 22.3766L20.2671 24.6212L23.2741 21.0011L22.035 19.972L20.192 22.1908Z" fill="white"/>
<path d="M26.6275 2.31544C26.6275 1.03661 25.5909 0 24.3121 0H5.68793C4.40911 0 3.3725 1.03661 3.3725 2.31544V27.6846C3.3725 28.9634 4.40911 30 5.68793 30H24.3121C25.5909 30 26.6275 28.9634 26.6275 27.6846V2.31544ZM25.0168 27.6846C25.0168 28.0738 24.7013 28.3893 24.3121 28.3893H5.68793C5.29874 28.3893 4.98324 28.0738 4.98324 27.6846V2.31544C4.98324 1.92624 5.29874 1.61074 5.68793 1.61074H24.3121C24.7013 1.61074 25.0168 1.92624 25.0168 2.31544V27.6846Z" fill="white"/>
</svg>
