<svg width="60" height="57" viewBox="0 0 60 57" fill="none" xmlns="http://www.w3.org/2000/svg">
<path d="M16.3104 0C17.6547 0 18.9688 0.375126 20.0866 1.07794C21.2043 1.78075 22.0755 2.77969 22.5899 3.94843C23.1044 5.11717 23.239 6.40321 22.9767 7.64394C22.7144 8.88466 22.0671 10.0243 21.1165 10.9189C20.166 11.8134 18.9549 12.4225 17.6364 12.6693C16.3179 12.9161 14.9513 12.7895 13.7093 12.3054C12.4673 11.8213 11.4058 11.0014 10.6589 9.94961C9.91209 8.89777 9.51346 7.66115 9.51346 6.39612C9.51346 4.69976 10.2296 3.07288 11.5042 1.87338C12.7789 0.673875 14.5077 0 16.3104 0ZM27.0441 17.1007C26.8365 16.608 26.4836 16.1816 26.027 15.8715C25.5703 15.5614 25.0289 15.3807 24.4667 15.3507H8.15408C7.59311 15.3849 7.05377 15.5673 6.5979 15.8768C6.14203 16.1863 5.78809 16.6105 5.57668 17.1007L0.139142 32.4513C-0.088714 33.096 -0.0351185 33.7994 0.288138 34.4068C0.611394 35.0142 1.17783 35.4759 1.86284 35.6903C2.54785 35.9048 3.29532 35.8543 3.94081 35.5501C4.58631 35.2459 5.07695 34.7129 5.3048 34.0683L8.15408 25.9964V53.7274C8.15408 54.4059 8.44052 55.0567 8.95039 55.5365C9.46025 56.0163 10.1518 56.2858 10.8728 56.2858C11.5939 56.2858 12.2854 56.0163 12.7953 55.5365C13.3052 55.0567 13.5916 54.4059 13.5916 53.7274V38.3767H19.0292V53.7274C19.0292 54.4059 19.3156 55.0567 19.8255 55.5365C20.3353 56.0163 21.0269 56.2858 21.7479 56.2858C22.469 56.2858 23.1605 56.0163 23.6704 55.5365C24.1803 55.0567 24.4667 54.4059 24.4667 53.7274V25.9964L27.3268 34.0683C27.4397 34.3875 27.6182 34.6826 27.8522 34.9369C28.0863 35.1911 28.3712 35.3995 28.6908 35.5501C29.0105 35.7007 29.3585 35.7907 29.715 35.8147C30.0715 35.8388 30.4296 35.7965 30.7688 35.6903C31.108 35.5842 31.4216 35.4162 31.6918 35.1959C31.962 34.9757 32.1834 34.7076 32.3435 34.4068C32.5036 34.106 32.5991 33.7785 32.6247 33.443C32.6502 33.1075 32.6053 32.7705 32.4925 32.4513L27.0441 17.1007ZM59.0114 26.3315L50.8551 18.6562C50.3423 18.1902 49.6555 17.9323 48.9427 17.9381C48.2298 17.9439 47.5479 18.213 47.0439 18.6874C46.5398 19.1617 46.2538 19.8034 46.2476 20.4742C46.2415 21.145 46.5155 21.7913 47.0107 22.2738L50.5288 25.5845H38.0605C37.3395 25.5845 36.648 25.854 36.1381 26.3338C35.6282 26.8136 35.3418 27.4644 35.3418 28.1429C35.3418 28.8215 35.6282 29.4722 36.1381 29.952C36.648 30.4318 37.3395 30.7014 38.0605 30.7014H50.5288L47.0135 34.0094C46.5182 34.492 46.2442 35.1382 46.2504 35.8091C46.2566 36.4799 46.5425 37.1216 47.0466 37.5959C47.5507 38.0703 48.2326 38.3393 48.9454 38.3452C49.6583 38.351 50.345 38.0931 50.8578 37.6271L59.0141 29.9517C59.2667 29.714 59.467 29.4317 59.6036 29.121C59.7402 28.8103 59.8104 28.4773 59.8101 28.1411C59.8099 27.8049 59.7392 27.472 59.6021 27.1615C59.4651 26.851 59.2643 26.569 59.0114 26.3315Z" fill="white"/>
</svg>
