<svg width="28" height="28" viewBox="0 0 28 28" fill="none" xmlns="http://www.w3.org/2000/svg">
<g clip-path="url(#clip0_58_1039)">
<path d="M13.0625 18.7466V4.625C13.0625 4.09719 13.4731 3.6875 14 3.6875C14.5269 3.6875 14.9375 4.09812 14.9375 4.625V18.7466H13.0625ZM13.0625 20.5916H14.9375V22.3494H13.0625V20.5916ZM-1 14C-1 5.70875 5.70875 -1 14 -1C22.2913 -1 29 5.70875 29 14C29 22.2913 22.2913 29 14 29C5.70875 29 -1 22.2913 -1 14ZM27.1541 14C27.1541 6.76344 21.2356 0.875 14 0.875C6.76438 0.875 0.875 6.76344 0.875 14C0.875 21.2366 6.76344 27.125 14 27.125C21.2366 27.125 27.1541 21.2366 27.1541 14Z" fill="white"/>
</g>
<rect x="1" y="1" width="26" height="26" rx="13" stroke="white" stroke-width="2"/>
<defs>
<clipPath id="clip0_58_1039">
<rect width="28" height="28" rx="14" fill="white"/>
</clipPath>
</defs>
</svg>
