<svg width="30" height="30" viewBox="0 0 30 30" fill="none" xmlns="http://www.w3.org/2000/svg">
<path d="M11 18.75L7.25 15M7.25 15L11 11.25M7.25 15H21M21 9.06003V9.00025C21 7.60011 21 6.89953 20.7275 6.36475C20.4878 5.89434 20.1057 5.51216 19.6352 5.27249C19.1005 5 18.3999 5 16.9997 5H4.99975C3.59963 5 2.9005 5 2.36575 5.27249C1.89537 5.51216 1.51188 5.89434 1.27225 6.36475C1 6.899 1 7.59874 1 8.99614V21.0045C1 22.4019 1 23.1006 1.27225 23.6349C1.51188 24.1052 1.89537 24.4881 2.36575 24.7277C2.9 25 3.59875 25 4.99612 25H17.0039C18.4013 25 19.101 25 19.6352 24.7277C20.1057 24.4881 20.4878 24.1049 20.7275 23.6345C21 23.0998 21 22.4001 21 21V20.9375" stroke="white" stroke-width="2" stroke-linecap="round" stroke-linejoin="round"/>
</svg>
