<svg width="679" height="165" viewBox="0 0 679 165" fill="none" xmlns="http://www.w3.org/2000/svg">
<rect width="679" height="165" rx="10" fill="#002333"/>
<rect x="23" y="8" width="146" height="150" rx="5" fill="white"/>
<path d="M135.041 79.75C135.041 82.35 134.891 85.1 134.591 88H68.8912C69.3912 96.1 72.1412 102.45 77.1412 107.05C82.2412 111.55 88.3912 113.8 95.5912 113.8C101.491 113.8 106.391 112.45 110.291 109.75C114.291 106.95 117.091 103.25 118.691 98.65H133.391C131.191 106.55 126.791 113 120.191 118C113.591 122.9 105.391 125.35 95.5912 125.35C87.7912 125.35 80.7912 123.6 74.5912 120.1C68.4912 116.6 63.6912 111.65 60.1912 105.25C56.6912 98.75 54.9412 91.25 54.9412 82.75C54.9412 74.25 56.6412 66.8 60.0412 60.4C63.4412 54 68.1912 49.1 74.2912 45.7C80.4912 42.2 87.5912 40.45 95.5912 40.45C103.391 40.45 110.291 42.15 116.291 45.55C122.291 48.95 126.891 53.65 130.091 59.65C133.391 65.55 135.041 72.25 135.041 79.75ZM120.941 76.9C120.941 71.7 119.791 67.25 117.491 63.55C115.191 59.75 112.041 56.9 108.041 55C104.141 53 99.7912 52 94.9912 52C88.0912 52 82.1912 54.2 77.2912 58.6C72.4912 63 69.7412 69.1 69.0412 76.9H120.941Z" fill="#002333"/>
<path d="M328.051 115.9C334.117 115.9 339.217 114.367 343.351 111.3C347.484 108.233 349.984 104.033 350.851 98.7H352.851C351.917 104.367 349.251 108.967 344.851 112.5C340.517 115.967 334.917 117.7 328.051 117.7C323.051 117.7 318.584 116.6 314.651 114.4C310.717 112.2 307.617 109 305.351 104.8C303.151 100.6 302.051 95.6667 302.051 90C302.051 84.3333 303.151 79.4 305.351 75.2C307.617 71 310.717 67.8 314.651 65.6C318.584 63.4 323.051 62.3 328.051 62.3C333.317 62.3 337.817 63.4333 341.551 65.7C345.284 67.9 348.084 70.7667 349.951 74.3C351.884 77.8333 352.851 81.5667 352.851 85.5C352.851 87.9 352.817 89.7 352.751 90.9H304.051C304.117 96.4333 305.251 101.067 307.451 104.8C309.717 108.533 312.651 111.333 316.251 113.2C319.851 115 323.784 115.9 328.051 115.9ZM328.051 64.1C323.784 64.1 319.851 65.0333 316.251 66.9C312.651 68.7 309.717 71.4667 307.451 75.2C305.251 78.9333 304.117 83.5667 304.051 89.1H351.051C351.384 83.5667 350.484 78.9333 348.351 75.2C346.284 71.4667 343.417 68.7 339.751 66.9C336.151 65.0333 332.251 64.1 328.051 64.1ZM390.544 61.8C396.877 61.8 402.077 63.7667 406.144 67.7C410.21 71.6333 412.244 77.5667 412.244 85.5V117H410.344V85.3C410.344 78.2333 408.577 72.8667 405.044 69.2C401.51 65.4667 396.677 63.6 390.544 63.6C384.144 63.6 379.01 65.7 375.144 69.9C371.277 74.0333 369.344 80.1667 369.344 88.3V117H367.344V63H369.344V77.2C370.61 72.2 373.144 68.4 376.944 65.8C380.744 63.1333 385.277 61.8 390.544 61.8ZM433.07 65V102.8C433.07 106.067 433.436 108.567 434.17 110.3C434.903 112.033 436.07 113.267 437.67 114C439.27 114.667 441.503 115 444.37 115H450.07V117H444.17C439.503 117 436.136 115.933 434.07 113.8C432.07 111.667 431.07 108 431.07 102.8V65H422.27V63H431.07V49.2H433.07V63H450.07V65H433.07ZM464.559 76.1C466.692 66.5667 473.792 61.8 485.859 61.8V64H484.959C479.292 64 474.459 65.6667 470.459 69C466.525 72.2667 464.559 77.5667 464.559 84.9V117H462.559V63H464.559V76.1ZM535.348 97.6H500.548L493.148 117H490.848L516.948 48.7H518.948L544.948 117H542.648L535.348 97.6ZM534.648 95.8L517.948 51.9L501.248 95.8H534.648ZM557.406 49.2C556.673 49.2 556.04 48.9667 555.506 48.5C555.04 47.9667 554.806 47.3 554.806 46.5C554.806 45.7 555.04 45.0667 555.506 44.6C556.04 44.0667 556.673 43.8 557.406 43.8C558.14 43.8 558.74 44.0667 559.206 44.6C559.74 45.0667 560.006 45.7 560.006 46.5C560.006 47.3 559.74 47.9667 559.206 48.5C558.74 48.9667 558.14 49.2 557.406 49.2ZM558.406 63V117H556.406V63H558.406Z" fill="white"/>
</svg>
