<svg width="30" height="30" viewBox="0 0 30 30" fill="none" xmlns="http://www.w3.org/2000/svg">
<path d="M12.5 11.25C12.5 10.7556 12.6466 10.2722 12.9214 9.86108C13.196 9.44995 13.5865 9.12952 14.0433 8.9403C14.5001 8.75109 15.0027 8.70158 15.4877 8.79804C15.9726 8.8945 16.4181 9.1326 16.7677 9.48224C17.1174 9.83186 17.3555 10.2773 17.452 10.7623C17.5484 11.2472 17.4989 11.7499 17.3098 12.2067C17.1205 12.6635 16.8 13.054 16.3889 13.3286C15.9778 13.6034 15.4945 13.75 15 13.75V15M17.8125 23.75L16 26.1666C15.5 26.8334 14.5 26.8334 14 26.1666L12.1875 23.75H8.75C5.98857 23.75 3.75 21.5114 3.75 18.75V8.75C3.75 5.98857 5.98857 3.75 8.75 3.75H21.25C24.0114 3.75 26.25 5.98857 26.25 8.75V18.75C26.25 21.5114 24.0114 23.75 21.25 23.75H17.8125Z" stroke="white" stroke-width="2" stroke-linecap="round" stroke-linejoin="round"/>
<path d="M15 20C15.6904 20 16.25 19.4404 16.25 18.75C16.25 18.0596 15.6904 17.5 15 17.5C14.3096 17.5 13.75 18.0596 13.75 18.75C13.75 19.4404 14.3096 20 15 20Z" fill="white"/>
</svg>
