<svg width="32" height="32" viewBox="0 0 32 32" fill="none" xmlns="http://www.w3.org/2000/svg">
<path d="M23.3333 8.66663H23.3467M9.33333 2.66663H22.6667C26.3486 2.66663 29.3333 5.65139 29.3333 9.33329V22.6666C29.3333 26.3485 26.3486 29.3333 22.6667 29.3333H9.33333C5.65143 29.3333 2.66666 26.3485 2.66666 22.6666V9.33329C2.66666 5.65139 5.65143 2.66663 9.33333 2.66663ZM21.3333 15.16C21.4979 16.2696 21.3083 17.4029 20.7917 18.3986C20.275 19.3944 19.4575 20.2018 18.4555 20.7062C17.4535 21.2105 16.3179 21.3861 15.2104 21.2079C14.1028 21.0296 13.0797 20.5067 12.2864 19.7135C11.4932 18.9203 10.9703 17.8971 10.7921 16.7896C10.6139 15.682 10.7894 14.5465 11.2938 13.5445C11.7981 12.5424 12.6056 11.7249 13.6013 11.2083C14.597 10.6916 15.7303 10.5021 16.84 10.6666C17.9719 10.8345 19.0198 11.3619 19.8289 12.171C20.638 12.9802 21.1655 14.0281 21.3333 15.16Z" stroke="white" stroke-width="3" stroke-linecap="round" stroke-linejoin="round"/>
</svg>
