<svg width="140" height="52" viewBox="0 0 140 52" fill="none" xmlns="http://www.w3.org/2000/svg">
<rect width="140" height="52" fill="#002333"/>
<g filter="url(#filter0_b_54_551)">
<path d="M64.1722 34.736C65.6282 34.736 66.8522 34.368 67.8442 33.632C68.8362 32.896 69.4362 31.888 69.6442 30.608H70.1242C69.9002 31.968 69.2602 33.072 68.2042 33.92C67.1642 34.752 65.8202 35.168 64.1722 35.168C62.9722 35.168 61.9002 34.904 60.9562 34.376C60.0122 33.848 59.2682 33.08 58.7242 32.072C58.1962 31.064 57.9322 29.88 57.9322 28.52C57.9322 27.16 58.1962 25.976 58.7242 24.968C59.2682 23.96 60.0122 23.192 60.9562 22.664C61.9002 22.136 62.9722 21.872 64.1722 21.872C65.4362 21.872 66.5162 22.144 67.4122 22.688C68.3082 23.216 68.9802 23.904 69.4282 24.752C69.8922 25.6 70.1242 26.496 70.1242 27.44C70.1242 28.016 70.1162 28.448 70.1002 28.736H58.4122C58.4282 30.064 58.7002 31.176 59.2282 32.072C59.7722 32.968 60.4762 33.64 61.3402 34.088C62.2042 34.52 63.1482 34.736 64.1722 34.736ZM64.1722 22.304C63.1482 22.304 62.2042 22.528 61.3402 22.976C60.4762 23.408 59.7722 24.072 59.2282 24.968C58.7002 25.864 58.4282 26.976 58.4122 28.304H69.6922C69.7722 26.976 69.5562 25.864 69.0442 24.968C68.5482 24.072 67.8602 23.408 66.9802 22.976C66.1162 22.528 65.1802 22.304 64.1722 22.304ZM79.1705 21.752C80.6905 21.752 81.9385 22.224 82.9145 23.168C83.8905 24.112 84.3785 25.536 84.3785 27.44V35H83.9225V27.392C83.9225 25.696 83.4985 24.408 82.6505 23.528C81.8025 22.632 80.6425 22.184 79.1705 22.184C77.6345 22.184 76.4025 22.688 75.4745 23.696C74.5465 24.688 74.0825 26.16 74.0825 28.112V35H73.6025V22.04H74.0825V25.448C74.3865 24.248 74.9945 23.336 75.9065 22.712C76.8185 22.072 77.9065 21.752 79.1705 21.752ZM89.3767 22.52V31.592C89.3767 32.376 89.4647 32.976 89.6407 33.392C89.8167 33.808 90.0967 34.104 90.4807 34.28C90.8647 34.44 91.4007 34.52 92.0887 34.52H93.4567V35H92.0407C90.9207 35 90.1127 34.744 89.6167 34.232C89.1367 33.72 88.8967 32.84 88.8967 31.592V22.52H86.7847V22.04H88.8967V18.728H89.3767V22.04H93.4567V22.52H89.3767ZM96.9341 25.184C97.4461 22.896 99.1501 21.752 102.046 21.752V22.28H101.83C100.47 22.28 99.3101 22.68 98.3501 23.48C97.4061 24.264 96.9341 25.536 96.9341 27.296V35H96.4541V22.04H96.9341V25.184ZM113.923 30.344H105.571L103.795 35H103.243L109.507 18.608H109.987L116.227 35H115.675L113.923 30.344ZM113.755 29.912L109.747 19.376L105.739 29.912H113.755ZM119.218 18.728C119.042 18.728 118.89 18.672 118.762 18.56C118.65 18.432 118.594 18.272 118.594 18.08C118.594 17.888 118.65 17.736 118.762 17.624C118.89 17.496 119.042 17.432 119.218 17.432C119.394 17.432 119.538 17.496 119.65 17.624C119.778 17.736 119.842 17.888 119.842 18.08C119.842 18.272 119.778 18.432 119.65 18.56C119.538 18.672 119.394 18.728 119.218 18.728ZM119.458 22.04V35H118.978V22.04H119.458Z" fill="white"/>
</g>
<rect x="7" y="6" width="37" height="36" fill="white"/>
<path d="M36.1777 26.2C36.1777 26.8933 36.1377 27.6267 36.0577 28.4H18.5377C18.671 30.56 19.4043 32.2533 20.7377 33.48C22.0977 34.68 23.7377 35.28 25.6577 35.28C27.231 35.28 28.5377 34.92 29.5777 34.2C30.6443 33.4533 31.391 32.4667 31.8177 31.24H35.7377C35.151 33.3467 33.9777 35.0667 32.2177 36.4C30.4577 37.7067 28.271 38.36 25.6577 38.36C23.5777 38.36 21.711 37.8933 20.0577 36.96C18.431 36.0267 17.151 34.7067 16.2177 33C15.2843 31.2667 14.8177 29.2667 14.8177 27C14.8177 24.7333 15.271 22.7467 16.1777 21.04C17.0843 19.3333 18.351 18.0267 19.9777 17.12C21.631 16.1867 23.5243 15.72 25.6577 15.72C27.7377 15.72 29.5777 16.1733 31.1777 17.08C32.7777 17.9867 34.0043 19.24 34.8577 20.84C35.7377 22.4133 36.1777 24.2 36.1777 26.2ZM32.4177 25.44C32.4177 24.0533 32.111 22.8667 31.4977 21.88C30.8843 20.8667 30.0443 20.1067 28.9777 19.6C27.9377 19.0667 26.7777 18.8 25.4977 18.8C23.6577 18.8 22.0843 19.3867 20.7777 20.56C19.4977 21.7333 18.7643 23.36 18.5777 25.44H32.4177Z" fill="#002333"/>
<defs>
<filter id="filter0_b_54_551" x="53.9322" y="13.432" width="69.9093" height="25.736" filterUnits="userSpaceOnUse" color-interpolation-filters="sRGB">
<feFlood flood-opacity="0" result="BackgroundImageFix"/>
<feGaussianBlur in="BackgroundImageFix" stdDeviation="2"/>
<feComposite in2="SourceAlpha" operator="in" result="effect1_backgroundBlur_54_551"/>
<feBlend mode="normal" in="SourceGraphic" in2="effect1_backgroundBlur_54_551" result="shape"/>
</filter>
</defs>
</svg>
