<svg width="27" height="32" viewBox="0 0 27 32" fill="none" xmlns="http://www.w3.org/2000/svg">
<path d="M13.5 16C17.4518 16 20.6554 12.6421 20.6554 8.5C20.6554 4.35786 17.4518 1 13.5 1C9.54825 1 6.3447 4.35786 6.3447 8.5C6.3447 12.6421 9.54825 16 13.5 16Z" stroke="black" stroke-width="2"/>
<path d="M20.6553 19H21.1586C23.3237 19 25.15 20.6899 25.4186 22.9418L25.9775 27.6279C26.191 29.4184 24.859 31 23.1374 31H3.86255C2.14099 31 0.808993 29.4184 1.02252 27.6279L1.58135 22.9418C1.84991 20.6899 3.67625 19 5.84142 19H6.34465" stroke="black" stroke-width="2" stroke-linecap="round" stroke-linejoin="round"/>
</svg>
