<svg width="32" height="32" viewBox="0 0 32 32" fill="none" xmlns="http://www.w3.org/2000/svg">
<g clip-path="url(#clip0_57_614)">
<path d="M20.0667 6.66671C21.369 6.92079 22.5659 7.55772 23.5041 8.49595C24.4423 9.43419 25.0793 10.6311 25.3333 11.9334M20.0667 1.33337C22.7724 1.63396 25.2955 2.84561 27.2217 4.76938C29.1479 6.69316 30.3627 9.21472 30.6667 11.92M29.3333 22.56V26.56C29.3349 26.9314 29.2588 27.2989 29.11 27.6392C28.9613 27.9794 28.7431 28.2848 28.4694 28.5359C28.1958 28.7869 27.8728 28.978 27.521 29.097C27.1692 29.2159 26.7965 29.2601 26.4267 29.2267C22.3238 28.7809 18.3827 27.3789 14.92 25.1334C11.6985 23.0863 8.96713 20.3549 6.92001 17.1334C4.66665 13.655 3.26434 9.6947 2.82668 5.57337C2.79336 5.20466 2.83718 4.83305 2.95535 4.48221C3.07351 4.13136 3.26344 3.80896 3.51303 3.53554C3.76263 3.26211 4.06642 3.04365 4.40507 2.89407C4.74372 2.74449 5.1098 2.66706 5.48001 2.66671H9.48001C10.1271 2.66034 10.7544 2.88948 11.245 3.31142C11.7357 3.73336 12.0561 4.3193 12.1467 4.96004C12.3155 6.24013 12.6286 7.49701 13.08 8.70671C13.2594 9.18394 13.2982 9.70259 13.1919 10.2012C13.0855 10.6998 12.8385 11.1575 12.48 11.52L10.7867 13.2134C12.6848 16.5514 15.4486 19.3153 18.7867 21.2134L20.48 19.52C20.8425 19.1616 21.3002 18.9145 21.7988 18.8082C22.2975 18.7018 22.8161 18.7406 23.2933 18.92C24.503 19.3714 25.7599 19.6845 27.04 19.8534C27.6877 19.9447 28.2792 20.271 28.7021 20.77C29.1249 21.2691 29.3496 21.9061 29.3333 22.56Z" stroke="#1E1E1E" stroke-width="3" stroke-linecap="round" stroke-linejoin="round"/>
</g>
<defs>
<clipPath id="clip0_57_614">
<rect width="32" height="32" fill="white"/>
</clipPath>
</defs>
</svg>
