<svg width="30" height="30" viewBox="0 0 30 30" fill="none" xmlns="http://www.w3.org/2000/svg">
<path d="M23.7187 22.5781C22.101 24.439 19.9307 25.734 17.5247 26.274C15.1187 26.814 12.6032 26.5707 10.3453 25.5796C8.08744 24.5883 6.20563 22.9012 4.97468 20.7645C3.74373 18.6278 3.22811 16.1536 3.50311 13.7031C3.7779 11.2523 4.82906 8.95367 6.50305 7.14278C8.17705 5.33189 10.3862 4.10365 12.8078 3.63745M17.1875 3.64683C18.8137 3.96001 20.3536 4.61887 21.7031 5.57881C23.0526 6.53876 24.1801 7.77739 25.0094 9.21089C25.8387 10.6444 26.3504 12.2394 26.5099 13.8878C26.6693 15.5362 26.4728 17.1997 25.9336 18.7656" stroke="white" stroke-width="2" stroke-linecap="round"/>
<path d="M12.5 14.375V12.1406C12.5 10.7858 13.6192 9.6875 15 9.6875C16.3808 9.6875 17.5 10.7858 17.5 12.1406V14.375M11.875 14.375H18.125C18.8175 14.375 19.375 14.9325 19.375 15.625V19.0625C19.375 19.755 18.8175 20.3125 18.125 20.3125H11.875C11.1825 20.3125 10.625 19.755 10.625 19.0625V15.625C10.625 14.9325 11.1825 14.375 11.875 14.375Z" stroke="white" stroke-width="2"/>
</svg>
