<svg width="60" height="59" viewBox="0 0 60 59" fill="none" xmlns="http://www.w3.org/2000/svg">
<path d="M43.6378 0C42.2893 0 40.971 0.39282 39.8497 1.12879C38.7284 1.86475 37.8544 2.91081 37.3384 4.13468C36.8223 5.35854 36.6873 6.70525 36.9503 8.0045C37.2134 9.30375 37.8628 10.4972 38.8164 11.4339C39.77 12.3706 40.985 13.0085 42.3076 13.2669C43.6303 13.5254 45.0012 13.3927 46.2472 12.8858C47.4931 12.3789 48.558 11.5204 49.3072 10.4189C50.0564 9.31748 50.4563 8.02252 50.4563 6.69782C50.4563 4.92145 49.738 3.21783 48.4592 1.96175C47.1805 0.705661 45.4462 0 43.6378 0ZM32.8701 17.9073C33.0783 17.3914 33.4323 16.9448 33.8904 16.6201C34.3485 16.2955 34.8916 16.1062 35.4556 16.0748H51.82C52.3828 16.1106 52.9238 16.3016 53.3812 16.6257C53.8385 16.9498 54.1935 17.394 54.4056 17.9073L59.8604 33.9821C60.089 34.6571 60.0352 35.3937 59.7109 36.0297C59.3867 36.6658 58.8184 37.1493 58.1312 37.3738C57.4441 37.5984 56.6942 37.5456 56.0467 37.227C55.3991 36.9085 54.9069 36.3503 54.6784 35.6753L51.82 27.2226V56.2617C51.82 56.9722 51.5327 57.6537 51.0212 58.1561C50.5097 58.6586 49.816 58.9408 49.0926 58.9408C48.3693 58.9408 47.6756 58.6586 47.1641 58.1561C46.6526 57.6537 46.3652 56.9722 46.3652 56.2617V40.1869H40.9104V56.2617C40.9104 56.9722 40.6231 57.6537 40.1116 58.1561C39.6001 58.6586 38.9064 58.9408 38.183 58.9408C37.4597 58.9408 36.766 58.6586 36.2545 58.1561C35.743 57.6537 35.4556 56.9722 35.4556 56.2617V27.2226L32.5864 35.6753C32.4732 36.0095 32.2941 36.3186 32.0594 36.5848C31.8246 36.8511 31.5387 37.0693 31.2181 37.227C30.8975 37.3847 30.5483 37.4789 30.1907 37.5041C29.833 37.5293 29.4738 37.485 29.1335 37.3738C28.7933 37.2627 28.4786 37.0867 28.2076 36.8561C27.9365 36.6255 27.7144 36.3447 27.5538 36.0297C27.3932 35.7148 27.2974 35.3718 27.2718 35.0205C27.2461 34.6692 27.2912 34.3163 27.4043 33.9821L32.8701 17.9073ZM0.801277 27.5736L8.98348 19.5362C9.49788 19.0482 10.1868 18.7781 10.9019 18.7842C11.6171 18.7903 12.3011 19.0721 12.8068 19.5688C13.3125 20.0656 13.5993 20.7375 13.6055 21.44C13.6117 22.1424 13.3368 22.8192 12.84 23.3245L9.31076 26.7913H21.8186C22.542 26.7913 23.2357 27.0735 23.7472 27.576C24.2587 28.0784 24.546 28.7599 24.546 29.4704C24.546 30.181 24.2587 30.8624 23.7472 31.3648C23.2357 31.8673 22.542 32.1495 21.8186 32.1495H9.31076L12.8373 35.6137C13.3341 36.1189 13.609 36.7957 13.6028 37.4982C13.5966 38.2006 13.3098 38.8726 12.8041 39.3693C12.2984 39.866 11.6143 40.1478 10.8992 40.1539C10.1841 40.16 9.49514 39.89 8.98075 39.4019L0.798546 31.3646C0.545139 31.1156 0.344185 30.8199 0.207165 30.4946C0.0701447 30.1693 -0.00025177 29.8206 3.8147e-06 29.4685C0.000255585 29.1164 0.0711555 28.7679 0.208645 28.4427C0.34613 28.1176 0.547516 27.8222 0.801277 27.5736Z" fill="white"/>
</svg>
