<svg width="28" height="29" viewBox="0 0 28 29" fill="none" xmlns="http://www.w3.org/2000/svg">
<path d="M9.59829 23.2353C8.53401 23.2353 5.21824 23.2353 2.76162 23.2353C1.45271 23.2353 0.603 21.9928 1.18835 20.9368L2.69219 18.2238C3.18117 17.3417 3.43573 16.37 3.43573 15.3837C3.43573 14.1612 3.43573 12.3454 3.43573 10.5294C3.43573 7.35294 5.19646 1 14.0001 1C22.8038 1 24.5645 7.35294 24.5645 10.5294C24.5645 12.3454 24.5645 14.1612 24.5645 15.3837C24.5645 16.37 24.8191 17.3417 25.3081 18.2238L26.8119 20.9368C27.3972 21.9928 26.5458 23.2353 25.2371 23.2353H18.4019M9.59829 23.2353C9.59829 26.4118 11.359 28 14.0001 28C16.6412 28 18.4019 26.4118 18.4019 23.2353M9.59829 23.2353C12.3487 23.2353 18.4019 23.2353 18.4019 23.2353" stroke="white" stroke-width="2" stroke-linejoin="round"/>
</svg>
